<svg width="110" height="25" viewBox="0 0 110 25" fill="none" xmlns="http://www.w3.org/2000/svg">
<path d="M101.157 23.589C91.0683 16.613 69.9374 16.7488 64.6501 20.0682C64.3623 20.2489 63.9386 20.1049 63.8563 19.7752C63.4505 18.1506 62.7684 15.417 64.2257 14.6196C72.6482 10.0109 92.1926 11.7391 101.798 18.5909C102.306 18.9532 102.001 22.1269 101.703 23.4058C101.643 23.6598 101.371 23.7374 101.157 23.589Z" fill="#383434"/>
<path d="M9.32401 23.0074C19.9012 16.7533 40.9029 16.2681 45.9355 19.7802C46.2141 19.9747 46.6424 19.8607 46.7335 19.5334C47.1917 17.8879 47.8598 15.0165 46.4637 14.11C38.4111 8.88158 18.8427 11.6035 8.75004 17.7144C8.2138 18.0391 8.51142 21.4471 8.7803 22.7878C8.8316 23.0435 9.09946 23.1402 9.32401 23.0074Z" fill="#383434"/>
</svg>
