<svg width="103" height="42" viewBox="0 0 103 42" fill="none" xmlns="http://www.w3.org/2000/svg">
<path d="M75.8267 34.6525L75.7761 34.6952L75.7285 34.7412C75.081 35.3654 73.982 36.0238 72.3824 36.6449C70.8069 37.2566 68.867 37.7861 66.652 38.2187C62.2228 39.0839 56.8507 39.5318 51.4275 39.54C46.0045 39.5482 40.6031 39.1166 36.1153 38.255C31.5861 37.3855 28.366 36.1451 26.8279 34.7805C25.2203 32.9004 23.6221 29.5742 22.4462 25.4372C21.3667 21.6389 20.6926 17.3301 20.6557 13.1691C32.4701 17.2395 42.0053 19.1759 51.4822 19.0953C60.9323 19.0149 70.1877 16.9295 81.4381 13.1484C81.3499 17.0554 80.605 21.7399 79.5313 25.8485C78.941 28.1075 78.2648 30.1398 77.5721 31.7337C76.8421 33.4133 76.2089 34.3301 75.8267 34.6525Z" fill="white" stroke="#383434" stroke-width="3.99569"/>
<path fill-rule="evenodd" clip-rule="evenodd" d="M85.1715 9.68253C84.9962 8.87179 84.2299 8.32989 83.4071 8.43486L78.6965 9.03581C77.2509 9.22024 76.7861 11.0848 77.976 11.9262L83.6901 15.9668C84.88 16.8081 86.483 15.7484 86.175 14.324L85.1715 9.68253ZM16.9227 10.3016C17.0648 9.45467 17.8506 8.87143 18.7024 8.98076L23.6579 9.61683C25.085 9.80001 25.5623 11.6281 24.4069 12.4856L18.6246 16.7768C17.4692 17.6343 15.8578 16.6478 16.0959 15.2289L16.9227 10.3016ZM39.6766 28.707C32.531 27.1922 22.9464 23.9115 21.2241 21.7586C21.4239 23.49 23.5017 26.913 25.4196 29.1506C25.4196 27.8916 28.9603 28.2718 33.0742 28.7136H33.0743C35.2472 28.947 37.58 29.1975 39.6355 29.2327C40.008 29.2391 40.0411 28.7843 39.6766 28.707ZM61.2286 28.7151C68.6054 27.2038 79.3528 23.9153 81.0782 21.7586C80.8784 23.49 78.8007 26.913 76.8828 29.1506C76.8828 27.8795 72.8056 28.2793 68.2466 28.7264C65.8826 28.9582 63.3891 29.2028 61.2674 29.2336C60.8948 29.2391 60.8636 28.7899 61.2286 28.7151Z" fill="#383434"/>
</svg>
