<svg width="103" height="46" viewBox="0 0 103 46" fill="none" xmlns="http://www.w3.org/2000/svg">
<path d="M82.9754 7.98584L22.3086 17.9313C22.3086 17.9313 27.8751 35.0145 35.3544 40.8066C42.8337 46.5988 75.4735 40.0975 79.2244 33.6945C82.9754 27.2915 82.9754 15.5715 82.9754 7.98584Z" fill="#383434"/>
<path d="M84.034 17.2657L25.8662 25.968L22.2031 17.2657L81.7431 9.02246L84.034 17.2657Z" fill="white"/>
<path d="M46.1152 41.8004C48.7241 33.1784 58.1153 19.8904 74.8096 35.7149C71.3315 38.83 60.7232 44.4081 46.1152 41.8004Z" fill="#E22525"/>
<path d="M79.2244 33.6945C82.9754 27.2915 82.9754 15.5715 82.9754 7.98584C82.9754 7.98584 64.6262 12.907 52.6777 14.8498C40.7292 16.7926 22.3086 17.9313 22.3086 17.9313C22.3086 17.9313 27.8751 35.0145 35.3544 40.8066C42.8337 46.5988 75.4735 40.0975 79.2244 33.6945Z" stroke="#383434" stroke-width="5.15392"/>
<path d="M83.7585 9.39124C82.8611 9.35261 82.1424 8.63392 82.1038 7.73654L81.8826 2.59902C81.8147 1.0224 83.7197 0.184906 84.8356 1.30078L90.1942 6.65946C91.3101 7.77533 90.4726 9.68027 88.896 9.6124L83.7585 9.39124Z" fill="#383434"/>
<path d="M22.5033 16.9311C22.557 17.8277 21.916 18.6163 21.0273 18.7469L15.9396 19.4944C14.3783 19.7238 13.3496 17.915 14.345 16.6904L19.1251 10.8098C20.1205 9.58526 22.1014 10.2227 22.1958 11.798L22.5033 16.9311Z" fill="#383434"/>
</svg>
