<svg width="103" height="45" viewBox="0 0 103 45" fill="none" xmlns="http://www.w3.org/2000/svg">
<path d="M43.7269 10.5779C40.9437 10.4039 35.6088 15.1443 33.2893 17.5362C27.2732 15.2168 17.1546 13.2743 24.8088 24.0598C34.3765 37.5417 40.2302 44.2399 52.4248 44.2399C67.6795 44.2399 80.4757 24.0598 81.3455 21.6679C82.0414 19.7543 77.4314 18.986 75.0395 18.841C71.6328 16.0867 64.0366 10.5779 60.9053 10.5779C56.9912 10.5779 54.3818 14.492 52.4248 14.492C50.4678 14.492 47.206 10.7954 43.7269 10.5779Z" fill="#E22525"/>
<path d="M53.2102 36.5912C44.3509 37.8568 27.8976 23.4077 20.7783 16.0249C39.7241 22.0126 69.1339 20.212 83.2688 16.0249C80.1047 22.3531 64.2843 35.0093 53.2102 36.5912Z" fill="white" stroke="#383434" stroke-width="4.24724" stroke-linejoin="round"/>
</svg>
