<svg width="74" height="52" viewBox="0 0 74 52" fill="none" xmlns="http://www.w3.org/2000/svg">
<path fill-rule="evenodd" clip-rule="evenodd" d="M2.6709 37.1841C2.6709 40.9349 8.7303 48.7021 13.6167 49.4001C18.5031 50.0982 47.0662 49.691 61.9 49.4001C65.972 47.3641 71.6045 41.2698 71.6045 37.1841V8.8988C63.2321 6.67746 44.4695 2.35645 44.4695 2.35645C39.5082 5.20433 36.8291 5.87412 30.5975 2.35645L2.6709 8.8988V37.1841ZM11.5109 19.527L15.5024 35.6948L29.1148 38.1842C35.1517 34.9819 43.1093 34.9819 49.1559 38.1842L60.6102 35.6948C62.0491 29.3239 64.1261 17.7855 64.1261 17.7855C62.5737 13.367 50.5016 14.0431 42.7903 14.4749C40.9217 14.5796 39.3091 14.6699 38.1643 14.6699C37.2893 14.6699 36.1155 14.6282 34.7466 14.5797C26.9332 14.3024 12.7625 13.7997 11.5109 19.527Z" fill="#6A4C1E"/>
<path d="M61.9 49.4001L61.9384 51.3598C62.2297 51.3541 62.516 51.2835 62.7765 51.1532L61.9 49.4001ZM71.6045 8.8988H73.5645C73.5645 8.00989 72.9663 7.23228 72.1071 7.00433L71.6045 8.8988ZM44.4695 2.35645L44.9094 0.44642C44.4278 0.335531 43.9222 0.41059 43.4937 0.656573L44.4695 2.35645ZM30.5975 2.35645L31.561 0.649594C31.1328 0.407842 30.6293 0.335917 30.1505 0.448091L30.5975 2.35645ZM2.6709 8.8988L2.22383 6.99045C1.33756 7.19807 0.710876 7.98854 0.710876 8.8988H2.6709ZM15.5024 35.6948L13.5995 36.1646C13.7844 36.9134 14.3911 37.4841 15.1498 37.6229L15.5024 35.6948ZM11.5109 19.527L9.59609 19.1085C9.53204 19.4016 9.53613 19.7055 9.60804 19.9968L11.5109 19.527ZM29.1148 38.1842L28.7622 40.1123C29.1959 40.1916 29.6437 40.1223 30.0333 39.9157L29.1148 38.1842ZM49.1559 38.1842L48.2386 39.9163C48.6475 40.1329 49.12 40.1978 49.5722 40.0995L49.1559 38.1842ZM60.6102 35.6948L61.0264 37.6101C61.7709 37.4483 62.3542 36.8698 62.522 36.1266L60.6102 35.6948ZM64.1261 17.7855L66.0551 18.1327C66.1151 17.7991 66.0876 17.4556 65.9753 17.1358L64.1261 17.7855ZM42.7903 14.4749L42.6807 12.518L42.7903 14.4749ZM34.7466 14.5797L34.8161 12.6209L34.7466 14.5797ZM13.8939 47.4598C13.0916 47.3452 12.0892 46.9084 10.9744 46.1224C9.87825 45.3496 8.78164 44.3154 7.8041 43.1666C6.82685 42.0183 6.0068 40.8004 5.44093 39.6882C4.85196 38.5307 4.63092 37.6687 4.63092 37.1841H0.710876C0.710876 38.5749 1.24726 40.0904 1.94713 41.4659C2.6701 42.8868 3.6703 44.3576 4.8187 45.7071C5.96681 47.0563 7.30126 48.3292 8.7156 49.3263C10.1112 50.3102 11.6986 51.106 13.3395 51.3405L13.8939 47.4598ZM61.8616 47.4405C54.4493 47.5858 43.6104 47.7602 34.0177 47.811C29.2204 47.8364 24.7437 47.8309 21.1666 47.7757C17.5334 47.7197 14.9674 47.6132 13.8939 47.4598L13.3395 51.3405C14.7092 51.5361 17.5461 51.6404 21.1062 51.6953C24.7226 51.7511 29.23 51.7565 34.0385 51.731C43.6574 51.68 54.5169 51.5053 61.9384 51.3598L61.8616 47.4405ZM69.6445 37.1841C69.6445 37.7842 69.4276 38.6188 68.9094 39.6503C68.4017 40.6609 67.6637 41.7432 66.7767 42.8022C64.9801 44.9471 62.7559 46.7808 61.0234 47.647L62.7765 51.1532C65.1161 49.9834 67.7442 47.752 69.7818 45.3193C70.8119 44.0895 71.7366 42.7549 72.4122 41.4101C73.0774 40.0861 73.5645 38.6269 73.5645 37.1841H69.6445ZM69.6445 8.8988V37.1841H73.5645V8.8988H69.6445ZM44.4695 2.35645C44.0296 4.26647 44.0297 4.26648 44.0298 4.26651C44.0299 4.26655 44.0301 4.26659 44.0304 4.26666C44.031 4.26678 44.0318 4.26698 44.0329 4.26723C44.0351 4.26775 44.0385 4.26853 44.043 4.26956C44.052 4.27163 44.0654 4.27473 44.0832 4.27883C44.1188 4.28704 44.1719 4.29927 44.2414 4.31533C44.3806 4.34744 44.5859 4.39486 44.8502 4.45603C45.3789 4.57835 46.1437 4.75563 47.0877 4.97532C48.9758 5.41473 51.5803 6.0237 54.4459 6.70195C60.1855 8.06044 66.9448 9.69033 71.1019 10.7933L72.1071 7.00433C67.8918 5.88593 61.0836 4.24465 55.3488 2.8873C52.4772 2.20763 49.8677 1.5975 47.9762 1.1573C47.0304 0.937193 46.264 0.759537 45.7339 0.63688C45.4688 0.575551 45.2628 0.527969 45.123 0.495704C45.0531 0.479571 44.9998 0.467267 44.9639 0.458988C44.9459 0.454848 44.9323 0.451715 44.9232 0.449612C44.9186 0.44856 44.9152 0.447767 44.9129 0.447234C44.9117 0.446967 44.9109 0.446766 44.9103 0.44663C44.91 0.446562 44.9097 0.44651 44.9096 0.446476C44.9094 0.44644 44.9094 0.44642 44.4695 2.35645ZM29.634 4.0633C32.8686 5.88919 35.4808 6.8075 38.0891 6.70195C40.6728 6.59739 42.9434 5.49242 45.4452 4.05632L43.4937 0.656573C41.0343 2.06836 39.4847 2.72222 37.9306 2.78511C36.4012 2.847 34.558 2.34137 31.561 0.649594L29.634 4.0633ZM3.11797 10.8072L31.0446 4.2648L30.1505 0.448091L2.22383 6.99045L3.11797 10.8072ZM4.63092 37.1841V8.8988H0.710876V37.1841H4.63092ZM17.4053 35.225L13.4138 19.0572L9.60804 19.9968L13.5995 36.1646L17.4053 35.225ZM29.4674 36.2562L15.855 33.7668L15.1498 37.6229L28.7622 40.1123L29.4674 36.2562ZM50.0733 36.4521C43.4533 32.9461 34.8081 32.9454 28.1963 36.4527L30.0333 39.9157C35.4953 37.0183 42.7654 37.0176 48.2386 39.9163L50.0733 36.4521ZM60.1939 33.7795L48.7397 36.2689L49.5722 40.0995L61.0264 37.6101L60.1939 33.7795ZM64.1261 17.7855C62.197 17.4383 62.197 17.4383 62.197 17.4383C62.197 17.4384 62.197 17.4385 62.197 17.4387C62.1969 17.439 62.1968 17.4395 62.1967 17.4402C62.1965 17.4415 62.1961 17.4435 62.1956 17.4463C62.1946 17.4517 62.1931 17.4599 62.1912 17.4708C62.1873 17.4926 62.1814 17.5251 62.1736 17.5678C62.1582 17.6534 62.1353 17.7799 62.1056 17.9432C62.0462 18.27 61.9597 18.7443 61.8513 19.3335C61.6347 20.512 61.3308 22.1495 60.9821 23.9853C60.2833 27.665 59.4097 32.1133 58.6983 35.263L62.522 36.1266C63.2496 32.9053 64.134 28.399 64.8333 24.7168C65.1838 22.8717 65.4891 21.2264 65.7068 20.0423C65.8156 19.4503 65.9026 18.9733 65.9624 18.6442C65.9924 18.4796 66.0155 18.352 66.0311 18.2654C66.039 18.2221 66.0449 18.189 66.0489 18.1668C66.051 18.1556 66.0525 18.1472 66.0535 18.1415C66.054 18.1386 66.0544 18.1365 66.0547 18.135C66.0548 18.1343 66.0549 18.1337 66.055 18.1333C66.055 18.1331 66.055 18.133 66.0551 18.1329C66.0551 18.1328 66.0551 18.1327 64.1261 17.7855ZM42.8999 16.4319C46.7868 16.2142 51.5943 15.9483 55.6137 16.2653C57.6299 16.4243 59.3147 16.7217 60.5339 17.1787C61.7942 17.6512 62.1742 18.143 62.2769 18.4352L65.9753 17.1358C65.3017 15.2188 63.5906 14.1381 61.9098 13.5081C60.1879 12.8627 58.0816 12.5277 55.9219 12.3574C51.5893 12.0157 46.5052 12.3038 42.6807 12.518L42.8999 16.4319ZM38.1643 16.6299C39.3773 16.6299 41.0557 16.5351 42.8999 16.4319L42.6807 12.518C40.7877 12.624 39.2409 12.7098 38.1643 12.7098V16.6299ZM34.6771 16.5384C36.0316 16.5865 37.2464 16.6299 38.1643 16.6299V12.7098C37.3323 12.7098 36.1994 12.6699 34.8161 12.6209L34.6771 16.5384ZM13.4258 19.9454C13.5525 19.3655 14.0377 18.7062 15.395 18.0771C16.7464 17.4507 18.6416 17.0162 20.8993 16.748C25.3982 16.2134 30.7388 16.3987 34.6771 16.5384L34.8161 12.6209C30.941 12.4834 25.2895 12.2787 20.4368 12.8553C18.0187 13.1426 15.6482 13.639 13.7465 14.5205C11.8506 15.3992 10.0951 16.8248 9.59609 19.1085L13.4258 19.9454Z" fill="#3B2607"/>
</svg>
