<svg width="337" height="223" viewBox="0 0 337 223" fill="none" xmlns="http://www.w3.org/2000/svg">
<path d="M331.29 221.764H3.36631C-10.1299 170.539 27.4957 -32.4645 108.422 5.71603C128.538 12.5294 156.166 37.8525 229.116 5.71582C302.764 -26.7288 353.331 134.084 331.29 221.764Z" fill="#E22525"/>
<path d="M94.3599 18.0716C95.3119 13.3688 99.4457 9.98801 104.244 9.98801H237.038C241.836 9.98801 245.97 13.3688 246.922 18.0716L285.181 207.063C286.446 213.31 281.671 219.148 275.297 219.148H65.9841C59.6107 219.148 54.8355 213.31 56.1001 207.063L94.3599 18.0716Z" fill="#2D89DF" stroke="#383434" stroke-width="5.97601"/>
<path d="M278 36.928C267.75 22.3615 261.193 19 247 19L253.723 52.2416L263.977 103.78L280.615 183.714C288.981 171.762 303.025 168.027 314.977 176.617C314.977 176.617 305.266 93.3267 303.025 84.7362C300.784 76.1456 286.937 49.6271 278 36.928Z" fill="#2D89DF" stroke="#383434" stroke-width="5.97601" stroke-linecap="round" stroke-linejoin="round"/>
<path d="M62.9766 36.928C73.2271 22.3615 79.7841 19 93.9771 19L87.2541 52.2416L77 103.78L60.3621 183.714C51.9957 171.762 37.952 168.027 26 176.617C26 176.617 35.711 93.3267 37.952 84.7362C40.193 76.1456 54.0402 49.6271 62.9766 36.928Z" fill="#2D89DF" stroke="#383434" stroke-width="5.97601" stroke-linecap="round" stroke-linejoin="round"/>
<circle cx="170.5" cy="78.9817" r="34.2532" fill="#FFDD65"/>
<path fill-rule="evenodd" clip-rule="evenodd" d="M163.791 34.5156C163.791 34.2858 163.977 34.0996 164.207 34.0996H168.367C168.596 34.0996 168.783 34.2858 168.783 34.5156V36.4289H172.11V34.5156C172.11 34.2858 172.296 34.0996 172.526 34.0996H176.686C176.915 34.0996 177.102 34.2858 177.102 34.5156V36.4289H179.348C179.532 36.4289 179.68 36.5779 179.68 36.7617V49.4066C179.68 49.5904 179.532 49.7394 179.348 49.7394H161.628C161.444 49.7394 161.295 49.5904 161.295 49.4066V36.7617C161.295 36.5779 161.444 36.4289 161.628 36.4289H163.791V34.5156Z" fill="#E22525"/>
<path fill-rule="evenodd" clip-rule="evenodd" d="M154.599 47.4448C154.599 47.215 154.785 47.0288 155.015 47.0288H159.174C159.404 47.0288 159.59 47.215 159.59 47.4448V49.3581H162.918V47.4448C162.918 47.215 163.104 47.0288 163.334 47.0288H167.493C167.723 47.0288 167.909 47.215 167.909 47.4448V49.3581H170.155C170.339 49.3581 170.488 49.5071 170.488 49.6909V62.3358C170.488 62.5196 170.339 62.6686 170.155 62.6686H152.436C152.252 62.6686 152.103 62.5196 152.103 62.3358V49.6909C152.103 49.5071 152.252 49.3581 152.436 49.3581H154.599V47.4448Z" fill="#E22525"/>
<path fill-rule="evenodd" clip-rule="evenodd" d="M154.599 60.2275C154.599 59.9978 154.785 59.8115 155.015 59.8115H159.174C159.404 59.8115 159.59 59.9978 159.59 60.2275V62.1409H162.918V60.2275C162.918 59.9978 163.104 59.8115 163.334 59.8115H167.493C167.723 59.8115 167.909 59.9978 167.909 60.2275V62.1409H170.155C170.339 62.1409 170.488 62.2898 170.488 62.4736V75.1186C170.488 75.3023 170.339 75.4513 170.155 75.4513H152.436C152.252 75.4513 152.103 75.3023 152.103 75.1186V62.4736C152.103 62.2898 152.252 62.1409 152.436 62.1409H154.599V60.2275Z" fill="#E22525"/>
<path fill-rule="evenodd" clip-rule="evenodd" d="M163.791 72.1489C163.791 71.9191 163.977 71.7329 164.207 71.7329H168.367C168.596 71.7329 168.783 71.9191 168.783 72.1489V74.0622H172.11V72.1489C172.11 71.9191 172.296 71.7329 172.526 71.7329H176.686C176.915 71.7329 177.102 71.9191 177.102 72.1489V74.0622H179.348C179.532 74.0622 179.68 74.2112 179.68 74.395V87.0399C179.68 87.2237 179.532 87.3727 179.348 87.3727H161.628C161.444 87.3727 161.295 87.2237 161.295 87.0399V74.395C161.295 74.2112 161.444 74.0622 161.628 74.0622H163.791V72.1489Z" fill="#E22525"/>
<path fill-rule="evenodd" clip-rule="evenodd" d="M172.984 85.2094C172.984 84.9797 173.171 84.7935 173.4 84.7935H177.56C177.79 84.7935 177.976 84.9797 177.976 85.2094V87.1228H181.304V85.2094C181.304 84.9797 181.49 84.7935 181.719 84.7935H185.879C186.109 84.7935 186.295 84.9797 186.295 85.2094V87.1228H188.541C188.725 87.1228 188.874 87.2718 188.874 87.4555V100.1C188.874 100.284 188.725 100.433 188.541 100.433H170.822C170.638 100.433 170.489 100.284 170.489 100.1V87.4556C170.489 87.2718 170.638 87.1228 170.822 87.1228H172.984V85.2094Z" fill="#E22525"/>
<path fill-rule="evenodd" clip-rule="evenodd" d="M172.984 97.4365C172.984 97.2067 173.171 97.0205 173.4 97.0205H177.56C177.79 97.0205 177.976 97.2067 177.976 97.4365V99.3498H181.304V97.4365C181.304 97.2067 181.49 97.0205 181.719 97.0205H185.879C186.109 97.0205 186.295 97.2067 186.295 97.4365V99.3498H188.541C188.725 99.3498 188.874 99.4988 188.874 99.6826V112.328C188.874 112.511 188.725 112.66 188.541 112.66H170.822C170.638 112.66 170.489 112.511 170.489 112.328V99.6826C170.489 99.4988 170.638 99.3498 170.822 99.3498H172.984V97.4365Z" fill="#E22525"/>
<path fill-rule="evenodd" clip-rule="evenodd" d="M154.599 97.4365C154.599 97.2067 154.785 97.0205 155.015 97.0205H159.174C159.404 97.0205 159.59 97.2067 159.59 97.4365V99.3498H162.918V97.4365C162.918 97.2067 163.104 97.0205 163.334 97.0205H167.493C167.723 97.0205 167.909 97.2067 167.909 97.4365V99.3498H170.155C170.339 99.3498 170.488 99.4988 170.488 99.6826V112.328C170.488 112.511 170.339 112.66 170.155 112.66H152.436C152.252 112.66 152.103 112.511 152.103 112.328V99.6826C152.103 99.4988 152.252 99.3498 152.436 99.3498H154.599V97.4365Z" fill="#E22525"/>
<path fill-rule="evenodd" clip-rule="evenodd" d="M163.791 108.641C163.791 108.411 163.977 108.225 164.207 108.225H168.367C168.596 108.225 168.783 108.411 168.783 108.641V110.554H172.11V108.641C172.11 108.411 172.296 108.225 172.526 108.225H176.686C176.915 108.225 177.102 108.411 177.102 108.641V110.554H179.348C179.532 110.554 179.68 110.703 179.68 110.887V123.532C179.68 123.715 179.532 123.864 179.348 123.864H161.628C161.444 123.864 161.295 123.715 161.295 123.532V110.887C161.295 110.703 161.444 110.554 161.628 110.554H163.791V108.641Z" fill="#E22525"/>
<path fill-rule="evenodd" clip-rule="evenodd" d="M172.984 47.4448C172.984 47.215 173.171 47.0288 173.4 47.0288H177.56C177.79 47.0288 177.976 47.215 177.976 47.4448V49.3581H181.304V47.4448C181.304 47.215 181.49 47.0288 181.719 47.0288H185.879C186.109 47.0288 186.295 47.215 186.295 47.4448V49.3581H188.541C188.725 49.3581 188.874 49.5071 188.874 49.6909V62.3358C188.874 62.5196 188.725 62.6686 188.541 62.6686H170.822C170.638 62.6686 170.489 62.5196 170.489 62.3358V49.6909C170.489 49.5071 170.638 49.3581 170.822 49.3581H172.984V47.4448Z" fill="#E22525"/>
</svg>
