<svg width="295" height="216" viewBox="0 0 295 216" fill="none" xmlns="http://www.w3.org/2000/svg">
<path d="M71.3599 11.0716C72.3119 6.36879 76.4457 2.98801 81.2439 2.98801H214.038C218.836 2.98801 222.97 6.36878 223.922 11.0716L262.181 200.063C263.446 206.31 258.671 212.148 252.297 212.148H42.9841C36.6107 212.148 31.8355 206.31 33.1001 200.063L71.3599 11.0716Z" fill="#352F2C" stroke="#383434" stroke-width="5.97601"/>
<path d="M255 29.928C244.75 15.3615 238.193 12 224 12L230.723 45.2416L240.977 96.7799L257.615 176.714C265.981 164.762 280.025 161.027 291.977 169.617C291.977 169.617 282.266 86.3267 280.025 77.7362C277.784 69.1456 263.937 42.6271 255 29.928Z" fill="#FFDD65" stroke="#383434" stroke-width="5.97601" stroke-linecap="round" stroke-linejoin="round"/>
<path d="M39.9766 29.928C50.2271 15.3615 56.7841 12 70.9771 12L64.2541 45.2416L54 96.7799L37.3621 176.714C28.9957 164.762 14.952 161.027 3 169.617C3 169.617 12.711 86.3267 14.952 77.7362C17.193 69.1456 31.0402 42.6271 39.9766 29.928Z" fill="#FFDD65" stroke="#383434" stroke-width="5.97601" stroke-linecap="round" stroke-linejoin="round"/>
<circle cx="103.059" cy="13.252" r="7.45508" fill="white"/>
<circle cx="191.917" cy="13.252" r="7.45508" fill="white"/>
<circle cx="108.172" cy="26.8504" r="7.60529" fill="white"/>
<circle cx="185.934" cy="26.8504" r="7.60529" fill="white"/>
<circle cx="118.506" cy="39.6934" r="9.08839" fill="white"/>
<circle cx="175.374" cy="39.6934" r="9.08839" fill="white"/>
<circle cx="127.594" cy="56.5386" r="10.749" fill="white"/>
<circle cx="166.286" cy="56.5386" r="10.749" fill="white"/>
<circle cx="146.694" cy="70.1244" r="13.0326" fill="white"/>
</svg>
