<svg width="295" height="223" viewBox="0 0 295 223" fill="none" xmlns="http://www.w3.org/2000/svg">
<path d="M52.1963 105.461H244.927L232.941 45.0527L189.704 18.8147V4.03618C181.853 -0.325241 163.786 0.0930953 147.1 0.0930953C129.257 0.0930953 112.638 -0.597484 105.368 3.53773V18.8147L64.6614 37.8612L52.1963 105.461Z" fill="#FFDD65"/>
<path d="M252.297 219.148H42.9841C36.6107 219.148 31.8355 213.31 33.1001 207.063L51.0361 118.465C51.374 116.796 52.1371 115.208 53.2421 113.809C56.9985 109.053 65.0303 98.2921 68.6796 88.6359C69.675 86.0018 70.3931 81.5843 70.9561 76.4626C71.5314 71.2298 71.9763 64.9215 72.3217 58.2912C73.0127 45.0249 73.3117 30.3325 73.4413 20.0977C73.5122 14.4978 78.0569 9.98801 83.6251 9.98801H92.0422C96.4098 9.98801 100.418 12.8665 102.274 17.1819C105.375 24.3926 110.392 33.8073 117.758 41.4608C125.156 49.148 135.076 55.1984 147.838 55.1984C160.241 55.1984 169.664 49.481 176.565 42.0598C183.419 34.689 187.885 25.5511 190.57 18.2969C192.382 13.4013 196.742 9.98801 201.498 9.98801H211.995C217.466 9.98801 221.949 14.3264 222.133 19.802C222.495 30.5161 223.102 46.3267 223.936 60.4406C224.352 67.4949 224.826 74.1509 225.357 79.5453C225.875 84.8113 226.474 89.2127 227.222 91.5195C228.588 95.7366 231.26 100.188 233.975 104.045C236.719 107.942 239.645 111.423 241.677 113.721C243.024 115.245 243.955 117.032 244.337 118.919L262.181 207.063C263.446 213.31 258.671 219.148 252.297 219.148Z" fill="white" stroke="#383434" stroke-width="5.97601"/>
<path d="M255 36.928C244.75 22.3615 238.193 19 224 19L230.723 52.2416L240.977 103.78L257.615 183.714C265.981 171.762 280.025 168.027 291.977 176.617C291.977 176.617 282.266 93.3267 280.025 84.7362C277.784 76.1456 263.937 49.6271 255 36.928Z" fill="#FFDD65" stroke="#383434" stroke-width="5.97601" stroke-linecap="round" stroke-linejoin="round"/>
<path d="M39.9766 36.928C50.2271 22.3615 56.7841 19 70.9771 19L64.2541 52.2416L54 103.78L37.3621 183.714C28.9957 171.762 14.952 168.027 3 176.617C3 176.617 12.711 93.3267 14.952 84.7362C17.193 76.1456 31.0402 49.6271 39.9766 36.928Z" fill="#FFDD65" stroke="#383434" stroke-width="5.97601" stroke-linecap="round" stroke-linejoin="round"/>
<path d="M233.601 118.078C233.798 117.273 233.304 116.462 232.5 116.265C231.695 116.069 230.883 116.562 230.687 117.367L233.601 118.078ZM61.8979 117.984C62.4782 121.27 63.2894 125.81 65.8182 129.503C68.438 133.33 72.7815 136.097 80.0003 136.097V133.097C73.6924 133.097 70.311 130.755 68.2937 127.808C66.1854 124.729 65.4473 120.832 64.8521 117.462L61.8979 117.984ZM80.0003 136.097C93.2065 136.097 102.95 131.68 112.876 127.52C122.804 123.36 133.03 119.394 147.558 119.8L147.642 116.802C132.447 116.376 121.73 120.557 111.717 124.753C101.702 128.95 92.5072 133.097 80.0003 133.097V136.097ZM147.558 119.8C162.118 120.208 171.338 124.181 180.564 128.139C189.843 132.121 199.146 136.097 213.577 136.097V133.097C199.795 133.097 190.971 129.341 181.747 125.382C172.468 121.401 162.805 117.226 147.642 116.802L147.558 119.8ZM213.577 136.097C221.395 136.097 226.175 132.891 229.108 128.923C231.97 125.052 233 120.541 233.601 118.078L230.687 117.367C230.07 119.896 229.147 123.823 226.695 127.14C224.314 130.362 220.42 133.097 213.577 133.097V136.097Z" fill="#DADADA"/>
</svg>
