<svg width="295" height="217" viewBox="0 0 295 217" fill="none" xmlns="http://www.w3.org/2000/svg">
<path d="M71.3599 12.0716C72.3119 7.36879 76.4457 3.98801 81.2439 3.98801H214.038C218.836 3.98801 222.97 7.36878 223.922 12.0716L262.181 201.063C263.446 207.31 258.671 213.148 252.297 213.148H42.9841C36.6107 213.148 31.8355 207.31 33.1001 201.063L71.3599 12.0716Z" fill="#D0AB74" stroke="#383434" stroke-width="5.97601"/>
<path d="M101.729 2.66797C104.518 5.78277 128.522 9.01233 147.549 9.01221C166.577 9.01208 190.581 5.78266 193.371 2.66797" stroke="#383434" stroke-width="5"/>
<path d="M86.6851 6.9751C86.6851 11.4195 110.089 26.2967 148.736 26.2967C187.383 26.2967 208.657 10.6199 208.657 6.97512" stroke="#86765E" stroke-width="5"/>
<path d="M255 30.928C244.75 16.3615 238.193 13 224 13L230.723 46.2416L240.977 97.7799L257.615 177.714C265.981 165.762 280.025 162.027 291.977 170.617C291.977 170.617 282.266 87.3267 280.025 78.7362C277.784 70.1456 263.937 43.6271 255 30.928Z" fill="#D0AB74" stroke="#383434" stroke-width="5.97601" stroke-linecap="round" stroke-linejoin="round"/>
<path d="M39.9766 30.928C50.2271 16.3615 56.7841 13 70.9771 13L64.2541 46.2416L54 97.7799L37.3621 177.714C28.9957 165.762 14.952 162.027 3 170.617C3 170.617 12.711 87.3267 14.952 78.7362C17.193 70.1456 31.0402 43.6271 39.9766 30.928Z" fill="#D0AB74" stroke="#383434" stroke-width="5.97601" stroke-linecap="round" stroke-linejoin="round"/>
<path d="M100.487 51.1069L78.3604 86.9801L100.487 121.1L121.877 86.9801L100.487 51.1069Z" fill="#67430E"/>
<path d="M151.856 51.1069L129.729 86.9801L151.856 121.1L173.246 86.9801L151.856 51.1069Z" fill="#86765E"/>
<path d="M202.803 51.1069L180.677 86.9801L202.803 121.1L224.193 86.9801L202.803 51.1069Z" fill="#67430E"/>
<path d="M67.9778 114.538L122.684 60.8325L182.862 114.538L224.569 60.8325" stroke="#383434" stroke-width="2" stroke-dasharray="2 2"/>
<path d="M72.335 60.8325L123.502 114.538L179.519 59.1091L231.349 112.437" stroke="#383434" stroke-width="2" stroke-dasharray="2 2"/>
</svg>
