<svg width="295" height="216" viewBox="0 0 295 216" fill="none" xmlns="http://www.w3.org/2000/svg">
<path d="M71.3599 11.0716C72.3119 6.36879 76.4457 2.98801 81.2439 2.98801H214.038C218.836 2.98801 222.97 6.36878 223.922 11.0716L262.181 200.063C263.446 206.31 258.671 212.148 252.297 212.148H42.9841C36.6107 212.148 31.8355 206.31 33.1001 200.063L71.3599 11.0716Z" fill="white" stroke="#383434" stroke-width="5.97601"/>
<path d="M255 29.928C244.75 15.3615 238.193 12 224 12L230.723 45.2416L240.977 96.7799L257.615 176.714C265.981 164.762 280.025 161.027 291.977 169.617C291.977 169.617 282.266 86.3267 280.025 77.7362C277.784 69.1456 263.937 42.6271 255 29.928Z" fill="#FFDD65" stroke="#383434" stroke-width="5.97601" stroke-linecap="round" stroke-linejoin="round"/>
<path d="M39.9766 29.928C50.2271 15.3615 56.7841 12 70.9771 12L64.2541 45.2416L54 96.7799L37.3621 176.714C28.9957 164.762 14.952 161.027 3 169.617C3 169.617 12.711 86.3267 14.952 77.7362C17.193 69.1456 31.0402 42.6271 39.9766 29.928Z" fill="#FFDD65" stroke="#383434" stroke-width="5.97601" stroke-linecap="round" stroke-linejoin="round"/>
<path fill-rule="evenodd" clip-rule="evenodd" d="M103.284 49.2609C103.284 48.5805 103.836 48.0288 104.517 48.0288H116.838C117.518 48.0288 118.07 48.5805 118.07 49.2609V54.9287H127.927V49.2609C127.927 48.5805 128.479 48.0288 129.159 48.0288H141.48C142.161 48.0288 142.712 48.5805 142.712 49.2609V54.9287H152.569V49.2609C152.569 48.5805 153.121 48.0288 153.802 48.0288H166.123C166.803 48.0288 167.355 48.5805 167.355 49.2609V54.9287H177.212V49.2609C177.212 48.5805 177.764 48.0288 178.444 48.0288H190.765C191.446 48.0288 191.997 48.5805 191.997 49.2609V54.9287H199.144C199.688 54.9287 200.129 55.37 200.129 55.9144V93.371C200.129 93.9154 199.688 94.3567 199.144 94.3567H96.138C95.5937 94.3567 95.1523 93.9154 95.1523 93.371V55.9144C95.1523 55.37 95.5937 54.9287 96.138 54.9287H103.284V49.2609Z" fill="#E22525"/>
</svg>
