<svg width="157" height="38" viewBox="0 0 157 38" fill="none" xmlns="http://www.w3.org/2000/svg">
<path fill-rule="evenodd" clip-rule="evenodd" d="M127.155 10.6944C126.51 13.8184 125.374 17.7968 123.874 21.3665C122.957 23.5506 121.946 25.4782 120.894 26.9362C119.802 28.4509 118.888 29.1487 118.275 29.3741C112.793 31.3885 105.778 32.603 94.9757 31.6499C93.8945 31.5545 92.7657 30.9494 91.5967 29.5491C90.4129 28.1311 89.3641 26.091 88.5197 23.6528C87.0073 19.2859 86.3505 14.2361 86.4333 10.6716C91.6552 6.71608 100.005 5.52312 108.576 6.16256C113.025 6.49446 117.328 7.30719 120.931 8.34237C123.525 9.08746 125.638 9.91407 127.155 10.6944ZM131.045 5.99091C128.85 4.69014 125.878 3.52056 122.588 2.57558C118.594 1.4284 113.886 0.542043 109.022 0.179188C100.509 -0.455962 90.8335 0.468155 83.8696 5.13338C83.7248 5.07363 83.5703 5.01489 83.4055 4.95796C82.3165 4.58181 80.8039 4.29263 78.7292 4.29268C76.6546 4.29273 75.1421 4.58191 74.0532 4.958C73.7779 5.05306 73.5313 5.15318 73.311 5.2546C66.3346 0.484169 56.5659 -0.461425 47.9791 0.179188C43.1154 0.542043 38.4071 1.42841 34.4136 2.57558C31.1085 3.525 28.1233 4.70115 25.926 6.00928L4.50974 1.57121C2.88736 1.235 1.29961 2.27765 0.963404 3.90004C0.627198 5.52242 1.66985 7.11018 3.29224 7.44638L23.9329 11.7237C24.6478 15.2466 25.9096 19.678 27.5955 23.6906C28.6139 26.1146 29.8299 28.4892 31.2408 30.4457C32.6108 32.3455 34.3944 34.1744 36.6574 35.0059C43.0981 37.3726 51.019 38.6444 62.5532 37.6267C65.709 37.3483 68.1816 35.5854 70.0108 33.3942C71.8253 31.2207 73.1715 28.4458 74.1515 25.6163C75.8904 20.5951 76.6723 14.8184 76.5651 10.4811C77.0328 10.3834 77.7347 10.2927 78.7293 10.2927C79.4423 10.2927 80.0048 10.3393 80.4385 10.4016C80.3197 14.7477 81.1004 20.5643 82.8501 25.6163C83.83 28.4458 85.1762 31.2207 86.9907 33.3942C88.8199 35.5854 91.2925 37.3483 94.4483 37.6267C105.983 38.6444 113.903 37.3726 120.344 35.0059C122.607 34.1744 124.391 32.3455 125.761 30.4457C127.172 28.4892 128.388 26.1146 129.406 23.6906C131.099 19.662 132.364 15.2113 133.077 11.6816L153.268 7.08212C154.884 6.71413 155.895 5.10621 155.527 3.49074C155.159 1.87527 153.551 0.863991 151.936 1.23199L131.045 5.99091ZM29.8465 10.6944C30.4915 13.8184 31.6272 17.7968 33.127 21.3665C34.0447 23.5506 35.056 25.4782 36.1074 26.9362C37.1996 28.4509 38.1134 29.1487 38.7269 29.3741C44.2089 31.3885 51.224 32.603 62.0258 31.6499C63.107 31.5545 64.2359 30.9494 65.4048 29.5491C66.5886 28.1311 67.6374 26.091 68.4818 23.6528C69.9942 19.2859 70.6511 14.2361 70.5683 10.6716C65.3464 6.71608 56.9965 5.52312 48.4255 6.16256C43.9767 6.49446 39.6738 7.30719 36.0701 8.34237C33.4763 9.08746 31.3632 9.91407 29.8465 10.6944Z" fill="#383434"/>
</svg>
