<svg width="157" height="39" viewBox="0 0 157 39" fill="none" xmlns="http://www.w3.org/2000/svg">
<path opacity="0.7" d="M83.5057 11.1772C95.6374 0.363462 123.165 5.9215 130.478 11.1772C129.382 18.1846 125.062 32.0564 119.309 34.1703C113.348 36.3609 105.88 37.604 94.7118 36.6186C86.2377 35.8709 82.8488 19.17 83.5057 11.1772Z" fill="#383434"/>
<path opacity="0.7" d="M73.4952 10.1772C61.3636 -0.636538 33.8355 4.9215 26.5234 10.1772C27.6185 17.1846 31.939 31.0564 37.6919 33.1703C43.6532 35.3609 51.1212 36.604 62.2892 35.6186C70.7633 34.8709 74.1522 18.17 73.4952 10.1772Z" fill="#383434"/>
<path fill-rule="evenodd" clip-rule="evenodd" d="M127.155 11.6748C126.51 14.7989 125.374 18.7772 123.874 22.3469C122.957 24.531 121.946 26.4587 120.894 27.9167C119.802 29.4313 118.888 30.1292 118.275 30.3546C112.793 32.369 105.777 33.5835 94.9757 32.6304C93.8945 32.535 92.7656 31.9299 91.5967 30.5296C90.4129 29.1116 89.3641 27.0715 88.5197 24.6332C87.0074 20.2663 86.3505 15.2166 86.4333 11.6521C91.6552 7.69655 100.005 6.50359 108.576 7.14303C113.025 7.47493 117.328 8.28765 120.931 9.32283C123.525 10.0679 125.638 10.8945 127.155 11.6748ZM131.082 6.99358C128.884 5.68391 125.896 4.5064 122.588 3.55605C118.594 2.40887 113.886 1.52251 109.022 1.15966C100.509 0.524504 90.8335 1.44863 83.8696 6.1139C83.7248 6.05413 83.5702 5.99538 83.4053 5.93843C82.3163 5.56228 80.8038 5.2731 78.7291 5.27315C76.6544 5.2732 75.142 5.56238 74.053 5.93847C73.7778 6.03354 73.5311 6.13366 73.3109 6.23508C66.3344 1.46464 56.5657 0.519049 47.979 1.15966C43.1153 1.52252 38.4069 2.40888 34.4134 3.55606C31.1221 4.50153 28.1481 5.67184 25.9533 6.97343L8.01312 2.92792C6.39685 2.56346 4.79114 3.57824 4.42667 5.19451C4.06221 6.81078 5.07699 8.41649 6.69326 8.78096L23.9252 12.6668C24.6388 16.1957 25.9035 20.6443 27.5953 24.6711C28.6138 27.0951 29.8298 29.4697 31.2407 31.4262C32.6107 33.326 34.3943 35.1549 36.6573 35.9864C43.098 38.3531 51.0188 39.6249 62.5531 38.6072C65.7089 38.3287 68.1814 36.5659 70.0107 34.3747C71.8251 32.2012 73.1714 29.4263 74.1513 26.5968C75.8903 21.5755 76.6721 15.7989 76.565 11.4616C77.0326 11.3639 77.7346 11.2732 78.7292 11.2731C79.4422 11.2731 80.0048 11.3197 80.4385 11.3821C80.3197 15.7282 81.1005 21.5448 82.8501 26.5968C83.83 29.4263 85.1762 32.2012 86.9907 34.3747C88.8199 36.5659 91.2925 38.3287 94.4483 38.6072C105.983 39.6249 113.903 38.3531 120.344 35.9864C122.607 35.1549 124.391 33.326 125.761 31.4262C127.172 29.4697 128.388 27.0951 129.406 24.671C131.09 20.6619 132.352 16.2345 133.067 12.7131L152.375 8.7945C153.999 8.46496 155.048 6.88151 154.718 5.25776C154.389 3.634 152.805 2.58483 151.182 2.91437L131.082 6.99358ZM29.8464 11.6748C30.4914 14.7989 31.6271 18.7772 33.1269 22.3469C34.0446 24.531 35.0558 26.4587 36.1072 27.9167C37.1995 29.4313 38.1133 30.1292 38.7268 30.3546C44.2088 32.369 51.2239 33.5835 62.0257 32.6304C63.1069 32.535 64.2357 31.9299 65.4047 30.5296C66.5885 29.1116 67.6373 27.0715 68.4817 24.6332C69.9941 20.2663 70.6509 15.2166 70.5681 11.6521C65.3462 7.69655 56.9964 6.5036 48.4253 7.14303C43.9766 7.47493 39.6736 8.28766 36.07 9.32284C33.4762 10.0679 31.3631 10.8945 29.8464 11.6748Z" fill="#383434"/>
</svg>
