<svg width="157" height="35" viewBox="0 0 157 35" fill="none" xmlns="http://www.w3.org/2000/svg">
<path fill-rule="evenodd" clip-rule="evenodd" d="M54.8508 29.6531C64.301 28.7323 70.0051 21.9235 69.4084 15.8004C68.8118 9.67732 61.9007 4.09784 52.4504 5.01868C43.0001 5.93952 37.2961 12.7482 37.8927 18.8713C38.4894 24.9944 45.4005 30.5739 54.8508 29.6531ZM73.4542 16.6683C73.5011 25.1608 65.6308 32.6216 55.2387 33.6342C44.3371 34.6965 34.7887 28.2606 33.9116 19.2593C33.7747 17.8541 33.8571 16.4695 34.1353 15.1292C33.968 14.9941 33.7437 14.8252 33.4763 14.6521C32.8974 14.2774 32.201 13.9385 31.4928 13.8146L10.4643 19.4913C10.0706 19.5976 9.65061 19.539 9.30102 19.329C8.95143 19.119 8.70241 18.7758 8.61131 18.3783L8.2814 16.9388C8.09695 16.1341 8.59757 15.3315 9.40147 15.1433L9.73794 16.58C9.40148 15.1433 9.40158 15.1432 9.40175 15.1432L9.40246 15.143L9.40522 15.1424L9.41597 15.1399L9.45805 15.13L9.62164 15.0919C9.76489 15.0585 9.97503 15.0097 10.2431 14.9476C10.7793 14.8235 11.5475 14.6466 12.4762 14.435C14.3332 14.012 16.8341 13.4499 19.407 12.8946C21.9774 12.3399 24.6304 11.7896 26.7878 11.3915C27.8651 11.1927 28.8332 11.0292 29.612 10.9221C30.3257 10.824 31.054 10.746 31.5434 10.7951C33.0044 10.9418 34.2639 11.5883 35.1064 12.1336L35.1095 12.1357C37.7277 6.29791 44.1673 1.80684 52.0625 1.03753C61.4014 0.127546 69.7473 4.72021 72.4995 11.7144C72.8171 11.6172 73.2166 11.5055 73.6868 11.3949C74.8945 11.1108 76.5929 10.8284 78.5854 10.8286C80.5774 10.8287 82.2788 11.111 83.4889 11.3946C83.9029 11.4916 84.2623 11.5895 84.5595 11.6776C87.3264 4.70407 95.6594 0.129146 104.982 1.03753C113.026 1.82135 119.559 6.46867 122.079 12.4674C122.226 12.3602 122.389 12.2476 122.565 12.1336C123.407 11.5883 124.667 10.9418 126.128 10.7951C126.617 10.746 127.346 10.824 128.059 10.9221C128.838 11.0292 129.806 11.1927 130.883 11.3915C133.041 11.7896 135.694 12.3399 138.264 12.8946C140.837 13.4499 143.338 14.012 145.195 14.435C146.124 14.6466 146.892 14.8235 147.428 14.9476C147.696 15.0097 147.906 15.0585 148.05 15.0919L148.213 15.13L148.255 15.1399L148.266 15.1424L148.269 15.143L148.27 15.1432C148.27 15.1432 148.27 15.1433 147.933 16.58L148.27 15.1433C149.074 15.3315 149.574 16.1341 149.39 16.9388L149.06 18.3783C148.969 18.7758 148.72 19.119 148.37 19.329C148.021 19.539 147.601 19.5976 147.207 19.4913L126.179 13.8146C125.47 13.9385 124.774 14.2774 124.195 14.6521C123.882 14.8544 123.629 15.051 123.456 15.1947C123.37 15.266 123.306 15.3231 123.266 15.3596C123.246 15.3779 123.232 15.3909 123.224 15.3978L123.219 15.4034C123.149 15.4714 123.074 15.5312 122.995 15.5829C123.203 16.7811 123.254 18.0121 123.133 19.2593C122.256 28.2606 112.707 34.6965 101.806 33.6342C91.3924 32.6196 83.5113 25.1304 83.5906 16.6164C83.5418 16.5993 83.4767 16.5772 83.3963 16.5512C83.1645 16.4762 82.8076 16.3704 82.3481 16.2627C81.425 16.0464 80.1131 15.8287 78.585 15.8286C77.0573 15.8285 75.7498 16.0461 74.8317 16.262C74.3746 16.3696 74.0201 16.4752 73.7903 16.5499C73.6755 16.5872 73.5924 16.6165 73.5438 16.6343C73.5195 16.6431 73.5038 16.6491 73.4972 16.6516L73.4949 16.6525C73.4813 16.6579 73.4678 16.6631 73.4542 16.6683ZM102.194 29.6531C92.7433 28.7323 87.0393 21.9235 87.636 15.8004C88.2326 9.67732 95.1437 4.09784 104.594 5.01868C114.044 5.93952 119.748 12.7482 119.152 18.8713C118.555 24.9944 111.644 30.5739 102.194 29.6531Z" fill="#383434"/>
</svg>
