<svg width="91" height="28" viewBox="0 0 91 28" fill="none" xmlns="http://www.w3.org/2000/svg">
<ellipse cx="22.8995" cy="13.6694" rx="9.30967" ry="11.5" fill="#383434"/>
<ellipse cx="23.1664" cy="8.86022" rx="3.95349" ry="3.95349" fill="white"/>
<path d="M1.8916 4.84152C5.17756 7.33431 7.92281 7.47941 10.5549 6.72259M10.5549 6.72259C9.82335 6.8819 7.52717 5.8024 6.18888 3.91521M10.5549 6.72259C11.5996 6.4222 12.6265 5.97973 13.6623 5.48557M13.6623 5.48557C15.8863 4.4245 18.1514 3.12517 20.7222 2.48253C26.1499 1.12576 30.1135 5.48557 31.8543 7.53972C32.2424 7.99768 33.2002 9.00019 34.2343 9.4664C29.6876 9.4664 27.9192 3.36819 23.0068 3.36819C18.0945 3.36819 16.2836 7.12475 12.2555 7.87362C10.5189 8.19648 7.9788 7.42606 6.18888 6.94598M13.6623 5.48557C12.6846 5.6707 10.5549 4.84152 9.5804 3.36819" stroke="#383434" stroke-width="2.33195" stroke-linecap="round" stroke-linejoin="round"/>
<ellipse rx="9.30967" ry="11.5" transform="matrix(-1 0 0 1 68.3202 13.1724)" fill="#383434"/>
<ellipse rx="3.95349" ry="3.95349" transform="matrix(-1 0 0 1 68.0524 8.36364)" fill="white"/>
<path d="M89.3271 4.34445C86.0412 6.83724 83.2959 6.98234 80.6639 6.22552M80.6639 6.22552C81.3954 6.38483 83.6916 5.30533 85.0299 3.41814M80.6639 6.22552C79.6191 5.92513 78.5923 5.48266 77.5565 4.9885M77.5565 4.9885C75.3324 3.92743 73.0673 2.6281 70.4965 1.98546C65.0688 0.628688 61.1053 4.9885 59.3644 7.04265C58.9763 7.50061 58.0185 8.50312 56.9844 8.96933C61.5312 8.96933 63.2996 2.87112 68.2119 2.87112C73.1243 2.87112 74.9351 6.62768 78.9632 7.37655C80.6998 7.69941 83.2399 6.92899 85.0299 6.44891M77.5565 4.9885C78.5341 5.17363 80.6639 4.34445 81.6384 2.87112" stroke="#383434" stroke-width="2.38162" stroke-linecap="round" stroke-linejoin="round"/>
</svg>
