<svg width="157" height="187" viewBox="0 0 157 187" fill="none" xmlns="http://www.w3.org/2000/svg">
<rect x="49.7289" y="3.37143" width="57.5429" height="50.733" rx="7.16429" fill="#FFDD65" stroke="#383434" stroke-width="6.74286"/>
<path d="M32.8714 132.952C32.8714 128.995 36.079 125.787 40.0357 125.787H116.964C120.921 125.787 124.129 128.995 124.129 132.952V171.718C124.129 175.005 121.903 177.831 118.789 178.553C89.5576 185.329 69.7127 185.342 38.3263 178.463C35.152 177.767 32.8714 174.912 32.8714 171.585V132.952Z" fill="#FFDD65" stroke="#383434" stroke-width="6.74286"/>
<path d="M3.37143 51.8931C3.37143 37.4627 15.0696 25.7645 29.5 25.7645H127.5C141.93 25.7645 153.629 37.4627 153.629 51.8931V131.258C153.629 143.722 144.864 154.447 132.728 156.429C93.1798 162.889 63.9402 162.759 24.393 156.372C12.1997 154.403 3.37143 143.651 3.37143 131.144V51.8931Z" fill="#FFDD65" stroke="#383434" stroke-width="6.74286"/>
<path d="M3.37143 51.8931C3.37143 37.4627 15.0696 25.7645 29.5 25.7645H127.5C141.93 25.7645 153.629 37.4627 153.629 51.8931V131.258C153.629 143.722 144.864 154.447 132.728 156.429C93.1798 162.889 63.9402 162.759 24.393 156.372C12.1997 154.403 3.37143 143.651 3.37143 131.144V51.8931Z" stroke="#383434" stroke-width="6.74286"/>
</svg>
