<svg width="257" height="225" viewBox="0 0 257 225" fill="none" xmlns="http://www.w3.org/2000/svg">
<path d="M179.305 104.087C186.565 107.34 189.601 118.317 191.6 137.284C193.599 156.251 193.252 171.194 195.91 173.294C198.567 175.394 201.803 176.029 203.895 173.294C205.987 170.559 206.507 161.205 209.726 150.519C211.891 143.336 216.24 129.645 217.608 124.784C219.561 117.84 220.27 112.525 218.498 106.723C217.684 104.059 216.007 100.881 213.746 97.5757C207.639 88.647 197.277 78.7884 188.193 75.6051C171.391 40.7033 106.18 43.9106 83.9065 52.8743C61.6328 61.838 59.1283 72.6891 55.257 75.6051C51.3498 78.5481 47.813 82.2862 44.9487 86.0449C41.7701 90.2161 39.4195 94.4125 38.3096 97.5757C36.013 104.121 30.1914 113.689 38.3096 135.333C39.4459 137.836 40.7227 141.287 42.0428 145.103C45.8749 156.179 50.0724 170.328 52.2606 173.294C55.1783 177.249 58.0058 176.457 61.7128 175.42L61.8058 175.394C65.5586 174.344 63.0308 158.044 64.9807 145.103C66.9307 132.161 67.2312 126.227 73.4991 118.317C81.7226 110.57 92.2536 105.359 103.961 102.103C129.235 95.0741 154.447 98.7353 179.305 104.087Z" fill="#2F2F1D"/>
<path d="M179.305 104.087C186.565 107.34 189.601 118.317 191.6 137.284C193.599 156.251 193.252 171.194 195.91 173.294C198.567 175.394 201.803 176.029 203.895 173.294C205.987 170.559 206.507 161.205 209.726 150.519M179.305 104.087C154.447 98.7353 129.235 95.0741 103.961 102.103M179.305 104.087C181.002 101.158 183.11 95.3198 184.283 92.0478M179.305 104.087C182.649 105.586 188.193 101.003 198.51 113.689C204.636 121.221 209.726 131.326 209.726 150.519M73.4991 118.317C61.8058 122.32 43.9492 122.846 34.1674 113.689M73.4991 118.317C67.2312 126.227 66.9307 132.161 64.9807 145.103M73.4991 118.317C81.7226 110.57 92.2536 105.359 103.961 102.103M38.3096 97.5757C36.0129 104.121 30.1914 113.689 38.3096 135.333C42.7443 145.103 49.3186 169.306 52.2606 173.294C55.2027 177.282 58.053 176.444 61.8058 175.394C65.5586 174.344 63.0308 158.044 64.9807 145.103M38.3096 97.5757C39.4713 110.698 83.0454 107.706 103.961 102.103M38.3096 97.5757C39.4195 94.4125 41.7701 90.2161 44.9487 86.0449M188.193 75.6051C171.391 40.7033 106.18 43.9106 83.9065 52.8743C61.6328 61.838 59.1283 72.6891 55.257 75.6051M188.193 75.6051C188.193 78.1255 187.352 78.7132 186.765 81.0639M188.193 75.6051C197.277 78.7884 207.639 88.647 213.746 97.5757C216.007 100.881 217.684 104.059 218.498 106.723C220.27 112.525 219.561 117.84 217.608 124.784M64.9807 145.103C58.2506 147.671 51.3127 152.516 42.0428 145.103M209.726 150.519C211.891 143.336 216.24 129.645 217.608 124.784M184.283 92.0478C179.498 84.2833 156.794 81.1489 130.872 82.4832C100.702 84.036 94.7718 95.5202 71.593 91.0605C60.6425 88.9535 50.3263 84.6509 44.9487 86.0449M184.283 92.0478C185.378 88.9917 187.633 85.5682 186.765 81.0639M184.283 92.0478C190.592 89.5619 209.386 102.103 217.608 124.784M44.9487 86.0449C47.8131 82.2862 51.3498 78.5481 55.257 75.6051M186.765 81.0639C183.623 76.1741 177.902 69.9003 168.384 66.7274C153.716 61.838 127.639 56.677 98.8462 66.7274C76.9391 74.3742 63.8209 79.3218 55.257 75.6051" stroke="#080707" stroke-width="7" stroke-linecap="round"/>
</svg>
