<svg width="257" height="231" viewBox="0 0 257 231" fill="none" xmlns="http://www.w3.org/2000/svg">
<path d="M151.242 132.558C130.545 101.748 101.853 99.9256 90.0937 102.866C77.6512 106.647 77.0841 122.708 74.9748 142.535C73.0226 160.886 62.1785 173.417 56.835 180.354C58.5224 181.993 57.2568 196.533 56.835 200.189C56.4975 203.114 62.3978 205.82 62.3978 213.193C56.6678 220.237 53.7417 219.505 48.3186 217.166C46.3152 216.005 43.7172 211.871 42.6305 210.642C38.247 205.684 41.7766 201.775 43.9193 199.441C39.7939 194.857 39.1444 185.594 39.3353 181.536C32.8031 175.233 36.6135 171.27 39.3353 170.076C38.304 166.409 41.1024 156.325 42.6305 151.741C40.224 145.324 42.7734 135.793 44.3489 131.83C41.9424 106.619 51.5588 95.0641 56.6678 92.438C67.5544 74.1027 78.891 68.5732 84.9073 68.6209C92.0973 51.1384 104.741 59.1373 104.741 59.1373C115.817 44.9275 133.383 48.3664 141.182 52.9025C153.788 52.4441 173.626 65.9472 181.969 72.756C205.119 84.5879 213.907 123.127 215.407 140.918C216.05 142.418 218.108 147.156 221.195 154.1C225.053 162.781 218.301 166.318 210.772 167.926C203.243 169.533 210.696 185.2 212.772 192.673C214.848 200.146 204.788 205.787 202.436 208.554C200.083 211.322 215.962 217.386 205.782 224.716C201.531 227.777 199.05 227.927 197.238 226.885C194.711 225.431 193.486 221.66 190.578 220.237C185.587 217.794 192.678 200.839 195.57 192.673C197.884 186.14 191.206 167.317 188.578 158.722C184.58 158.957 172.409 144.905 166.824 137.849C159.533 140.907 153.398 135.595 151.242 132.558Z" fill="#EEE0BD"/>
<path d="M90.0937 102.866C101.853 99.9256 130.545 101.748 151.242 132.558C153.398 135.595 159.533 140.907 166.824 137.849M90.0937 102.866C77.6512 106.647 77.0841 122.708 74.9748 142.535C73.0226 160.886 62.1785 173.417 56.835 180.354M90.0937 102.866C79.0177 91.4327 80.8819 74.925 84.9073 68.6209M166.824 137.849C172.409 144.905 184.58 158.957 188.578 158.722M166.824 137.849C159.045 107.79 137.974 70.9488 104.741 59.1373M188.578 158.722C191.206 167.317 197.884 186.14 195.57 192.673C192.678 200.839 185.587 217.794 190.578 220.237C193.486 221.66 194.711 225.431 197.238 226.885C199.05 227.927 201.531 227.777 205.782 224.716C215.962 217.386 200.083 211.322 202.436 208.554C204.788 205.787 214.848 200.146 212.772 192.673C210.696 185.2 203.243 169.533 210.772 167.926M188.578 158.722C192.604 157.927 203.782 156.465 191.312 142.535C180.196 130.119 174.749 128.169 171.499 113.451C168.249 98.7329 172.001 72.7364 141.182 52.9025M210.772 167.926C218.301 166.318 225.053 162.781 221.195 154.1C218.108 147.156 216.05 142.418 215.407 140.918M210.772 167.926C207.532 167.927 201.597 164.393 203.782 150.244M215.407 140.918C213.907 123.127 205.119 84.5879 181.969 72.756C173.626 65.9472 153.788 52.4441 141.182 52.9025M215.407 140.918C213.077 139.138 207.49 134.11 203.782 128.243M141.182 52.9025C133.383 48.3664 115.817 44.9275 104.741 59.1373M104.741 59.1373C104.741 59.1373 92.0973 51.1384 84.9073 68.6209M84.9073 68.6209C78.891 68.5732 67.5544 74.1027 56.6678 92.438M56.6678 92.438C51.5588 95.0641 41.9424 106.619 44.3489 131.83C42.7734 135.793 40.224 145.324 42.6305 151.741C41.1024 156.325 38.304 166.409 39.3353 170.076M56.6678 92.438C54.8693 99.4896 53.0569 115.659 56.6678 126.649C61.3558 140.918 55.425 163.565 39.3353 170.076M39.3353 170.076C36.6135 171.27 32.8031 175.233 39.3353 181.536M39.3353 181.536C39.1444 185.594 39.7939 194.858 43.9193 199.441C41.7766 201.775 38.247 205.684 42.6305 210.642C43.7172 211.871 46.3152 216.005 48.3186 217.166C53.7417 219.505 56.6678 220.237 62.3978 213.193C62.3978 205.82 56.4975 203.114 56.835 200.189C57.2568 196.533 58.5224 181.993 56.835 180.354M39.3353 181.536C41.1833 184.139 47.2704 185.291 56.835 180.354" stroke="#D6B563" stroke-width="7" stroke-linecap="round" stroke-linejoin="round"/>
</svg>
