<svg width="257" height="230" viewBox="0 0 257 230" fill="none" xmlns="http://www.w3.org/2000/svg">
<path d="M54.3738 148.773C48.5717 152.762 45.1118 144.6 44.054 140.52C43.414 138.888 39.2474 115.512 39.8941 106.429C43.6609 92.456 48.5557 90.1157 50.4594 85.7638C51.6328 83.0813 51.7618 75.63 58.4869 68.7592C54.8494 61.7973 48.9344 46.967 54.3738 43.3408C58.2298 40.7702 60.0357 41.0849 60.7603 42.0242C59.1057 36.5312 57.8611 29.2685 63.8925 25.5826C70.42 21.5936 77.4915 23.9205 80.2113 25.5826C80.5135 19.3875 82.9311 7.17866 90.1839 7.90394C97.4367 8.62922 106.201 12.1346 109.676 13.7966C110.734 10.1702 115.479 3.00805 125.995 3.37069C136.511 3.73333 147.602 10.4724 151.833 13.7966C154.25 11.6812 160.083 8.08508 164.072 10.6235C169.058 13.7966 171.325 25.5826 175.405 25.5826C179.484 25.5826 188.55 31.0221 188.55 35.5551V51.9536C190.514 53.9179 194.443 58.5718 194.443 61.4729C194.443 64.374 192.582 68.8191 191.652 70.679C197.022 77.2311 199.681 78.8487 200.789 80.5912C202.926 83.9482 206.586 90.3868 208.042 97.0025C208.055 97.0531 208.067 97.1045 208.078 97.1569C208.879 100.43 212.892 107.153 213.406 110.114C215.672 123.18 214.022 129.188 210.849 140.52C208.311 149.586 199.325 149.152 196.605 146.735C196.605 135.402 182.131 120.528 173.678 120.528C165.96 120.528 150.256 116.685 140.419 112.685C136.805 111.216 131.028 117.167 125.995 118.295C121.971 119.197 115.78 116.445 111.239 115.533C106.937 114.668 101.75 120.041 95.1705 118.295C72.9588 112.402 64.2977 121.893 61.173 127.13C58.4869 131.632 61.6263 143.787 54.3738 148.773Z" fill="#C2934C"/>
<path d="M61.173 127.13C58.4869 131.632 61.6263 143.787 54.3738 148.773C48.5717 152.762 45.1118 144.6 44.054 140.52C43.414 138.888 39.2474 115.512 39.8941 106.429C43.6608 92.456 48.5557 90.1157 50.4594 85.7638M61.173 127.13C64.2977 121.893 72.9588 112.402 95.1705 118.295C101.75 120.041 106.937 114.668 111.239 115.533M61.173 127.13C59.03 127.454 53.6223 123.841 51.9085 118.295M140.419 112.685C150.256 116.685 165.96 120.528 173.678 120.528M140.419 112.685C144.99 109.224 143.575 102.408 137.312 88.0927M140.419 112.685C136.805 111.216 131.028 117.167 125.995 118.295C121.971 119.197 115.78 116.445 111.239 115.533M173.678 120.528C182.131 120.528 196.605 135.402 196.605 146.735C199.325 149.152 208.311 149.586 210.849 140.52C214.022 129.188 215.672 123.18 213.406 110.114C212.884 107.106 208.749 100.214 208.042 97.0025M173.678 120.528C174.861 119.156 180.608 112.685 177.185 103.46M50.4594 85.7638C51.6328 83.0813 51.7618 75.63 58.4869 68.7592M50.4594 85.7638C49.7042 94.2113 50.8719 106.77 58.4869 110.114M58.4869 68.7592C54.8494 61.7973 48.9344 46.967 54.3738 43.3408C59.8132 39.7146 61.173 41.8299 61.173 43.3408M58.4869 68.7592C61.6793 65.4976 65.6008 64.68 70.3642 61.4729M61.173 43.3408C59.3597 37.7502 57.365 29.5717 63.8925 25.5826C70.42 21.5936 77.4915 23.9205 80.2113 25.5826M61.173 43.3408C60.0478 47.6666 60.3068 59.411 70.3642 61.4729M80.2113 25.5826C80.5135 19.3875 82.9311 7.17866 90.1839 7.90394C97.4367 8.62922 106.201 12.1346 109.676 13.7966M80.2113 25.5826C77.2877 30.0073 79.7494 42.9071 92.4041 51.9536M109.676 13.7966C110.734 10.1702 115.479 3.00805 125.995 3.37069C136.511 3.73333 147.602 10.4724 151.833 13.7966M109.676 13.7966C107.655 18.6693 100.477 31.2936 111.239 45.076C109.755 48.133 107.677 55.4362 111.239 60.1934M151.833 13.7966C154.25 11.6812 160.083 8.08508 164.072 10.6235C169.058 13.7966 171.325 25.5826 175.405 25.5826M151.833 13.7966C154.852 19.5516 155.798 37.777 141.841 48.5412M175.405 25.5826C179.484 25.5826 188.55 31.0221 188.55 35.5551C188.55 39.1815 188.55 46.6651 188.55 51.9536C190.514 53.9179 194.443 58.5718 194.443 61.4729C194.443 64.374 192.582 68.8191 191.652 70.679M175.405 25.5826C175.649 33.1804 173.706 48.7337 163.985 50.1648M191.652 70.679C197.022 77.2311 199.681 78.8487 200.789 80.5912C202.926 83.9481 206.586 90.3868 208.042 97.0025M191.652 70.679C186.537 64.438 180.453 62.6665 169.417 57.2708M191.652 70.679C192.338 74.9309 194.259 86.2296 188.55 88.0927M82.9406 58.934C78.7087 64.9672 71.4819 73.1077 82.9406 88.0927M82.9406 58.934C84.3322 58.3139 90.9165 52.5248 92.4041 51.9536M82.9406 58.934C78.2199 61.0376 74.0404 58.9977 70.3642 61.4729M169.417 57.2708C173.139 65.8921 182.142 73.8367 163.985 92.3849M169.417 57.2708C168.149 56.6509 165.346 50.7361 163.985 50.1648M208.042 97.0025C208.996 100.803 205.899 109.581 194.443 114.295M111.239 115.533C108.649 111.143 95.1706 91.6215 121.735 74.9631M92.4041 51.9536C102.802 47.9614 110.43 43.4673 125.995 43.3408C132.309 43.2895 136.51 47.7392 141.841 48.5412M141.841 48.5412C149.663 49.7181 158.071 47.6819 163.985 50.1648" stroke="#383434" stroke-width="5" stroke-linecap="round" stroke-linejoin="round"/>
</svg>
