<svg width="257" height="225" viewBox="0 0 257 225" fill="none" xmlns="http://www.w3.org/2000/svg">
<path d="M26.9358 151.469C23.9569 167.55 33.0363 179 51.9613 179C53.2035 168.325 50.5006 163 56.3317 157.813C66.7087 148.582 54.0447 145.638 59.4177 135.613C68.6243 128.527 66.9418 120.577 66.7087 114.53C83.4525 114.53 84.469 100.722 83.7696 98.351C90.484 102.05 107.919 103.725 113.706 95.1589C117.022 103.523 133.813 103.121 138.466 97.082C147.139 100.781 154.527 100.73 161.057 95.1589C162.96 102.919 178.291 112.488 186.595 107.866C183.921 120.19 187.682 128.672 195.499 134.03C202.305 142.845 191.054 149.343 199.219 157.813C203.269 162.014 204.799 167.331 204.799 176.514C228.86 172.535 228.115 150.761 225.434 143.766C231.592 134.03 239.098 127.221 234.662 110.525C232.14 101.033 227.122 92.2031 213.582 89.1764C219.083 81.8499 220.908 70.5991 213.582 59.9565C205.777 48.6175 188.567 51.8816 185.537 55.32C188.101 51.2887 189.689 35.5007 173.29 29.5179C154.921 22.8161 148.797 34.0872 144.621 39.3133C120.019 2.10158 79.4137 23.7299 72.2322 43.2261C49.1339 39.3133 36.7647 55.32 38.6604 74.1921C14.3653 83.1316 17.196 106.317 23.9569 116.87C11.1488 128.132 15.0209 147.989 26.9358 151.469Z" fill="#583F3F"/>
<path d="M26.9358 151.469C23.9569 167.55 33.0363 179 51.9613 179C53.2035 168.325 50.5006 163 56.3317 157.813C66.7087 148.582 54.0447 145.638 59.4177 135.613C68.6243 128.527 66.9418 120.577 66.7087 114.53C83.4525 114.53 84.469 100.722 83.7696 98.351M26.9358 151.469C15.0209 147.989 11.1488 128.132 23.9569 116.87M26.9358 151.469C30.1663 150.206 34.5776 149.237 38.6604 151.469M23.9569 116.87C17.196 106.317 14.3653 83.1316 38.6604 74.1921M23.9569 116.87C25.8035 114.793 33.7861 116.87 38.6604 121.612M38.6604 74.1921C36.7647 55.32 49.1339 39.3133 72.2322 43.2261M38.6604 74.1921C42.7401 72.691 51.599 77.02 54.3972 85.0817M72.2322 43.2261C79.4137 23.7299 120.019 2.10158 144.621 39.3133M72.2322 43.2261C71.824 47.8502 74.3695 57.0986 83.7696 57.0986M144.621 39.3133C148.797 34.0872 154.921 22.8161 173.29 29.5179C189.689 35.5007 188.101 51.2887 185.537 55.32M144.621 39.3133C144.621 41.4007 146.867 51.6361 137.261 55.32M185.537 55.32C188.567 51.8816 205.777 48.6175 213.582 59.9565C220.908 70.5991 219.083 81.8499 213.582 89.1764M185.537 55.32C183.165 58.0106 180.11 59.5005 177.98 67.7752M213.582 89.1764C227.122 92.2031 232.14 101.033 234.662 110.525C239.098 127.221 231.592 134.03 225.434 143.766M213.582 89.1764C213.582 89.1764 204.799 92.8501 204.799 98.351M225.434 143.766C228.115 150.761 228.86 172.535 204.799 176.514C204.799 167.331 203.269 162.014 199.219 157.813C191.054 149.343 202.305 142.845 195.499 134.03C187.682 128.672 183.921 120.19 186.595 107.866C178.291 112.488 162.96 102.919 161.057 95.1589M225.434 143.766C224.59 141.564 220.249 139.414 214.935 143.766M161.057 95.1589C154.527 100.73 147.139 100.781 138.466 97.082C133.813 103.121 117.022 103.523 113.706 95.1589C107.919 103.725 90.484 102.05 83.7696 98.351M161.057 95.1589C161.503 94.7788 162.135 93.841 162.479 92.8501M83.7696 98.351C82.5867 97.7474 80.0594 95.802 79.4137 92.8501" stroke="#383434" stroke-width="7" stroke-linecap="round" stroke-linejoin="round"/>
</svg>
