<svg width="257" height="225" viewBox="0 0 257 225" fill="none" xmlns="http://www.w3.org/2000/svg">
<path d="M50.4671 151.932V177.313C44.9587 169.748 33.5255 153.764 31.8599 150.347C30.1944 146.929 31.166 141.088 31.8599 138.594C30.0094 137.788 25.6839 133.755 23.1856 124.077C20.6873 114.399 25.6144 105.687 28.3902 102.541C27.5575 94.4571 33.1324 87.9523 36.0239 85.7104C36.0239 70.4083 47.3587 64.8173 53.026 63.9346L54.2908 53.9139L54.434 53.4694C56.1409 48.1683 59.0146 39.2435 60.9105 34.5545C62.6025 30.3701 66.8625 33.33 69.1631 34.5545C68.5848 33.1719 69.4035 29.8537 73.8449 27.6418C78.2863 25.4299 85.4109 26.7202 88.4181 27.6418C88.8808 25.2222 90.5 19.7608 93.2759 17.2721C96.0517 14.7834 106.692 16.2352 111.666 17.2721C112.013 13.8156 117.912 7.94005 123.833 7.94005C128.569 7.94005 131.806 14.1614 132.832 17.2721L142.024 17.9462C146.008 17.9462 149.074 15.3451 150.717 13.857C153.373 11.4516 155.84 7.94005 160.723 5.61528C173.214 1.46751 174.585 19.3463 174.469 27.6418C184.463 21.5584 191.587 36.6287 193.9 44.9243C202.506 44.6478 212.522 63.474 216.454 72.9217C231.726 80.5259 229.293 94.3095 233.803 112.647C238.314 130.984 219.407 144.857 220.387 154.618C221.171 162.427 210.393 180.126 204.906 188L206.865 154.618C205.69 154.553 202.907 154.462 201.182 154.618C199.027 154.813 196.675 140.953 191.776 140.953C186.877 140.953 187.856 122.407 187.464 112.647C187.072 102.886 171.199 104.252 165.908 104.838C160.617 105.424 148.393 97.0465 146.266 95.8906C144.138 94.7348 139.11 97.2392 135.629 97.0465C132.844 96.8924 126.604 95.1576 123.833 94.3095C122.561 95.4528 118.916 97.8767 114.509 98.4255C110.102 98.9743 103.491 95.9102 100.737 94.3095C95.4572 96.8248 83.1079 101.993 75.9462 102.541C68.7846 103.09 66.076 107.343 65.6169 109.401C62.1738 140.956 55.9762 137.526 55.9762 141.642C55.9762 144.935 52.3035 149.874 50.4671 151.932Z" fill="#744C10"/>
<path d="M55.9762 141.642C55.9762 144.935 52.3035 149.874 50.4671 151.932V177.313C44.9587 169.748 33.5255 153.764 31.8599 150.347C30.1944 146.929 31.166 141.088 31.8599 138.594C30.0094 137.788 25.6839 133.755 23.1856 124.077C20.6873 114.399 25.6144 105.687 28.3902 102.541C27.5575 94.4571 33.1324 87.9523 36.0239 85.7104M55.9762 141.642C55.9762 137.526 62.1738 140.956 65.6169 109.401C66.076 107.343 68.7846 103.09 75.9462 102.541C83.1079 101.993 95.4572 96.8248 100.737 94.3095M55.9762 141.642C51.3952 138.129 42.3049 128.035 42.5915 115.755M100.737 94.3095C103.491 95.9102 110.102 98.9743 114.509 98.4255C118.916 97.8767 122.561 95.4528 123.833 94.3095M100.737 94.3095C106.439 89.2308 117.844 76.5576 117.844 66.4937M123.833 94.3095C126.604 95.1576 132.844 96.8924 135.629 97.0465C139.11 97.2392 144.138 94.7348 146.266 95.8906M123.833 94.3095C129.826 90.6301 142.704 81.7005 146.266 75.4179M146.266 95.8906C148.393 97.0465 160.617 105.424 165.908 104.838M146.266 95.8906C154.116 92.993 170.749 85.1274 174.469 76.8458M165.908 104.838C171.199 104.252 187.072 102.886 187.464 112.647C187.856 122.407 186.877 140.953 191.776 140.953M165.908 104.838C172.314 102.643 186.003 96.5414 189.513 89.6966M191.776 140.953C196.675 140.953 199.027 154.813 201.182 154.618C202.907 154.462 205.69 154.553 206.865 154.618M191.776 140.953C198.113 138.594 199.614 125.408 201.182 115.755M206.865 154.618L204.906 188C210.393 180.126 221.171 162.427 220.387 154.618C219.407 144.857 238.314 130.984 233.803 112.647C229.293 94.3095 231.726 80.5259 216.454 72.9217M206.865 154.618C210.062 151.064 216.454 141.314 216.454 130.748M216.454 72.9217C212.522 63.474 202.506 44.6478 193.9 44.9243M216.454 72.9217C216.45 75.9499 214.9 82.7348 213.522 85.7104M193.9 44.9243C191.587 36.6287 184.463 21.5584 174.469 27.6418M193.9 44.9243C193.682 47.0446 192.952 51.811 191.776 53.9139M174.469 27.6418C174.585 19.3463 173.214 1.46751 160.723 5.61528C155.84 7.94005 153.373 11.4516 150.717 13.857C149.074 15.3451 146.008 17.9462 142.024 17.9462L132.832 17.2721M174.469 27.6418C174.77 29.9948 174.739 35.3684 172.211 38.0397M132.832 17.2721C131.806 14.1614 128.569 7.94005 123.833 7.94005C117.912 7.94005 112.013 13.8156 111.666 17.2721M132.832 17.2721C133.764 19.2741 135.629 24.1509 135.629 27.6418M111.666 17.2721C106.692 16.2352 96.0517 14.7834 93.2759 17.2721C90.5 19.7608 88.8808 25.2222 88.4181 27.6418M111.666 17.2721C109.622 20.1719 105.939 27.1783 107.554 32.0056M88.4181 27.6418C85.4109 26.7202 78.2863 25.4299 73.8449 27.6418C69.4035 29.8537 68.5848 33.1719 69.1631 34.5545M88.4181 27.6418C87.1379 29.4795 84.9616 34.1319 86.4978 38.0397M69.1631 34.5545C66.8625 33.33 62.6025 30.3701 60.9105 34.5545C58.9605 39.3772 55.9762 48.6807 54.2908 53.9139L53.026 63.9346M69.1631 34.5545C68.6653 36.6523 70.2243 40.9745 71.4188 43.1305M53.026 63.9346C47.3587 64.8173 36.0239 70.4083 36.0239 85.7104M53.026 63.9346C50.3367 67.6585 48.6188 84.8693 53.026 89.6966M36.0239 85.7104C36.4055 87.6644 40.101 96.2359 42.5915 98.4255" stroke="#422B09" stroke-width="7" stroke-linecap="round" stroke-linejoin="round"/>
</svg>
