<svg width="257" height="225" viewBox="0 0 257 225" fill="none" xmlns="http://www.w3.org/2000/svg">
<path d="M52.5041 176.009L41.1853 170.99C36.6449 167.257 35.0379 159.639 34.8986 151.507C34.8058 146.086 35.3652 140.436 36.1428 135.556C36.6067 132.645 37.1482 130.008 37.6751 127.856C33.4748 127.016 34.7874 112.63 35.9688 105.542C35.3999 104.667 33.5533 102.497 30.7182 100.817C27.1742 98.7166 41.8753 79.4213 44.3692 76.7961C46.863 74.1709 37.2811 70.4956 34.2621 64.9827C31.2431 59.4698 42.6628 50.8066 44.3692 53.1693C46.0755 55.532 55.6575 53.3005 61.3017 53.1693C65.8171 53.0643 80.6845 41.2247 87.5538 35.3181C96.5845 15.8916 120.719 17.7728 131.657 21.1418C133.845 21.3168 141.213 21.9557 153.184 23.1108C168.148 24.5547 174.711 45.5564 175.498 48.7067C176.128 51.2269 180.661 51.8569 182.849 51.857C197.419 45.0314 214.745 60.3891 216.32 63.5393C217.042 63.9261 217.752 64.6262 218.442 65.565C221.863 67.7047 228.22 69.3212 232.071 70.2334C237.059 71.4147 235.878 83.6221 235.878 86.116C235.878 88.3888 227.375 88.6995 226.96 90.7236C227.003 90.9434 227.044 91.1579 227.083 91.3666C228.527 93.9918 227.083 99.3735 227.083 103.574C227.083 106.934 223.408 108.124 221.57 108.299C223.539 111.318 220.258 123.525 219.602 125.494C219.077 127.069 216.601 127.375 215.429 127.332C213.095 129.563 215.429 152.491 215.429 158.459C215.429 164.426 204.091 163.829 198.721 163.232C195.697 162.896 193.43 157.453 192.026 151.802C190.937 147.415 190.367 142.904 190.367 140.557C190.367 135.186 196.334 117.881 190.367 117.881C184.399 117.881 178.432 111.317 170.675 111.317C162.917 111.317 137.258 114.897 127.114 117.881C116.969 120.865 102.051 117.881 91.3101 111.317C82.7172 106.066 68.6345 113.505 62.6672 117.881C62.4683 122.058 62.1898 131.725 62.6672 136.977C63.1147 141.899 60.206 146.822 56.9615 152.5C55.8799 154.393 54.7609 156.37 53.7165 158.459C52.7573 160.377 52.2341 162.375 52.0085 164.318C51.4483 169.144 52.2059 172.427 52.5041 176.009Z" fill="#362424"/>
<path d="M62.6672 117.881C62.4683 122.058 62.1898 131.725 62.6672 136.977C63.1147 141.899 60.206 146.822 56.9615 152.5M62.6672 117.881C68.6345 113.505 82.7172 106.066 91.3101 111.317C102.051 117.881 116.969 120.865 127.114 117.881C137.258 114.897 162.917 111.317 170.675 111.317C178.432 111.317 184.399 117.881 190.367 117.881M62.6672 117.881C50.4234 112.631 40.9042 122.344 37.6751 127.856M190.367 117.881C196.334 117.881 190.367 135.186 190.367 140.557C190.367 142.904 190.937 147.415 192.026 151.802M190.367 117.881C196.674 117.816 210.516 119.616 215.429 127.332M215.429 127.332C213.095 129.563 215.429 152.491 215.429 158.459C215.429 164.426 204.091 163.829 198.721 163.232C195.697 162.896 193.43 157.453 192.026 151.802M215.429 127.332C216.601 127.375 219.077 127.069 219.602 125.494C220.258 123.525 223.539 111.318 221.57 108.299M221.57 108.299C223.408 108.124 227.083 106.934 227.083 103.574C227.083 99.3735 228.527 93.9918 227.083 91.3666M221.57 108.299C221.57 99.2992 198.966 87.4431 187.664 82.64M227.083 91.3666C225.64 88.7414 235.878 88.61 235.878 86.116C235.878 83.6221 237.059 71.4147 232.071 70.2334C227.083 69.0521 217.895 66.6896 216.32 63.5393M227.083 91.3666C225.536 83.1836 221.217 66.1619 216.32 63.5393M216.32 63.5393C214.745 60.3891 197.419 45.0314 182.849 51.857C180.661 51.8569 176.128 51.2269 175.498 48.7067C174.711 45.5564 168.148 24.5547 153.184 23.1108C141.213 21.9557 133.845 21.3168 131.657 21.1418C120.719 17.7728 96.5845 15.8916 87.5538 35.3181C80.6845 41.2247 65.8171 53.0643 61.3017 53.1693C55.6575 53.3005 46.0755 55.532 44.3692 53.1693C42.6628 50.8066 31.2431 59.4698 34.2621 64.9827C37.2811 70.4956 46.863 74.1709 44.3692 76.7961C41.8753 79.4213 27.1742 98.7166 30.7182 100.817C33.5533 102.497 35.3999 104.667 35.9688 105.542M35.9688 105.542C34.7874 112.63 33.4748 127.016 37.6751 127.856M35.9688 105.542C37.2511 98.8063 43.5718 85.6005 58.8892 76.1491M37.6751 127.856C37.1482 130.008 36.6067 132.645 36.1428 135.556M74.5367 69.1368C74.0866 73.0377 74.8068 80.5695 81.2883 79.4892C89.3903 78.1389 117.747 81.5897 120.448 70.9372C130.15 70.5871 150.815 70.307 155.856 71.9874M74.5367 69.1368C68.5041 70.995 63.3202 73.415 58.8892 76.1491M74.5367 69.1368C76.5894 65.2298 79.4731 60.6231 83.0527 55.965M155.856 71.9874C162.158 74.0879 167.859 90.2918 183.763 86.3909L187.664 82.64M155.856 71.9874C159.19 66.8512 164.568 55.1672 159.412 49.5208M187.664 82.64C187.248 78.3887 187.583 68.6168 192.247 63.5393M140.694 33.1035C116.805 22.5923 95.6322 39.5954 83.0527 55.965M100.034 55.965C110.007 49.7254 133.789 38.0133 149.132 41.082M192.026 151.802C195.869 153.334 203.873 154.445 205.143 146.631M56.9615 152.5C55.8799 154.393 54.7609 156.37 53.7165 158.459C52.7573 160.377 52.2341 162.375 52.0085 164.318M56.9615 152.5C50.9526 151.26 38.3763 146.134 36.1428 135.556M36.1428 135.556C35.3652 140.436 34.8058 146.086 34.8986 151.507M52.0085 164.318C51.4483 169.144 52.2059 172.427 52.5041 176.009L41.1853 170.99C36.6449 167.257 35.0379 159.639 34.8986 151.507M52.0085 164.318C46.699 163.26 35.8437 159.217 34.8986 151.507M58.8892 76.1491C56.4332 71.7675 53.4774 62.3003 61.3017 59.4847C71.0822 55.965 78.5516 55.965 83.0527 55.965M131.657 63.5393C137.065 62.3839 148.131 59.2515 149.132 55.965M205.143 67.2237C208.868 71.7709 216.32 81.9155 216.32 86.116" stroke="#1E1404" stroke-width="5" stroke-linecap="round" stroke-linejoin="round"/>
<path d="M91.3108 111.317C82.7179 106.066 68.6352 113.505 62.6679 117.881C50.4241 112.631 40.9049 122.344 37.6758 127.856C33.4755 127.016 35.2971 110.34 35.9694 105.542C35.9694 76.6315 74.5374 69.1367 74.5374 69.1367C74.0873 73.0376 74.8075 80.5694 81.289 79.4892C89.391 78.1389 117.748 81.5897 120.448 70.9371C130.151 70.5871 150.816 70.307 155.857 71.9874C162.158 74.0879 167.86 90.2918 183.763 86.3908L187.664 82.6399C198.967 87.443 221.571 99.2991 221.571 108.299C223.54 111.318 220.259 123.525 219.602 125.494C219.077 127.069 216.602 127.375 215.43 127.332C210.517 119.616 196.675 117.816 190.367 117.881C184.4 117.881 178.433 111.317 170.675 111.317C162.918 111.317 137.259 114.897 127.114 117.881C116.97 120.865 102.052 117.881 91.3108 111.317Z" fill="#1776CF" stroke="#1E1404" stroke-width="5"/>
</svg>
