<svg width="257" height="225" viewBox="0 0 257 225" fill="none" xmlns="http://www.w3.org/2000/svg">
<path d="M51.918 137.946C45.9552 135.174 55.6182 139.609 42.7205 132.697C41.7091 107.124 55.7967 46.1359 120.291 44.0555C200.909 41.4549 211.743 112.943 211.31 132.696C211.31 132.696 206.046 138.846 200.804 140.661C195.561 142.476 194.558 142.241 185.974 138.23C177.389 134.218 162.727 127.409 128.709 127.409C91.4235 127.409 81.9236 134.836 69.1946 139.362C63.7419 141.3 60.7888 142.071 51.918 137.946Z" fill="#1776CF"/>
<path d="M42.7205 132.697C55.6182 139.609 45.9552 135.174 51.918 137.946C60.7888 142.071 63.7419 141.3 69.1946 139.362C81.9236 134.836 91.4235 127.409 128.709 127.409C162.727 127.409 177.389 134.218 185.974 138.23C194.558 142.241 195.561 142.476 200.804 140.661C206.046 138.846 211.31 132.696 211.31 132.696M42.7205 132.697C41.7091 107.124 55.7967 46.1359 120.291 44.0555C200.909 41.4549 211.743 112.943 211.31 132.696M42.7205 132.697C57.6051 124.984 84.304 112.254 128.709 112.254C176.707 112.254 207.238 130.447 211.31 132.696" stroke="#033561" stroke-width="5.95141"/>
</svg>
