<svg width="257" height="246" viewBox="0 0 257 246" fill="none" xmlns="http://www.w3.org/2000/svg">
<path d="M60.9571 130.501C66.9829 144.849 60.5985 173.801 56.7758 181.021C55.9847 182.515 54.9869 183.246 53.8959 183.447C53.7801 186.909 53.6181 196.404 53.8959 206.685C54.1738 216.966 72.3043 223.241 81.3348 225.094V242.616H48.0743C44.3367 242.616 36.467 243.318 32.6819 238.803C28.8969 234.288 35.1071 217.672 38.7377 208.422C42.5228 198.778 46.0692 187.839 48.0743 181.021C46.8169 179.944 45.694 178.689 44.8842 177.623C41.6942 174.225 42.7742 157.624 34.9526 140.042C28.6954 125.976 30.8317 111.81 32.6819 106.485C26.021 91.3463 33.9437 81.5063 38.7377 78.4786C36.1137 61.3217 49.6698 60.3966 56.7758 62.0786C56.7758 50.7753 66.5523 49.6315 71.4406 50.4725C72.3721 39.9642 83.6678 41.3843 89.1991 43.4079C94.5631 32.2536 111.004 33.4114 115.944 40.1278C124.204 29.7063 133.93 33.4116 138.399 37.3523C146.898 31.7905 155.697 37.3523 159.593 43.4079C167.406 37.3523 177.437 46.4355 180.177 52.4907C192.81 51.0778 198.603 59.3135 199.921 63.6079C211.556 66.8573 214.203 79.1997 214.072 84.9647C224.292 91.778 214.858 115.624 214.858 117.459C214.858 119.293 212.893 132.92 214.072 135.802C215.251 138.685 211.801 149.957 211.801 154.932V171.125C211.801 175.329 209.522 178.637 205.589 179.366C206.698 188.26 209.881 204.546 211.801 211.106C214.858 221.554 222.911 229.68 218.268 243.185H172.335V225.094C179.072 222.546 193.159 215.646 195.606 208.422C198.053 201.197 198.665 186.304 198.665 179.76C192.462 178.544 194.529 160.786 193.678 157.624C192.827 154.462 189.543 141.69 191.61 130.501C193.678 119.311 184.159 111.74 180.177 110.292C176.195 108.845 168.848 109.645 165.423 107.999C159.593 105.198 153.915 101.917 148.324 103.352C142.035 104.966 134.618 103.946 124.204 102.187C114.838 100.606 99.5154 104.501 92.7257 107.999C85.936 111.497 78.8431 107.999 71.4406 110.292C66.6835 111.766 57.8203 123.031 60.9571 130.501Z" fill="#744C10"/>
<path d="M198.665 179.76C192.462 178.544 194.529 160.786 193.678 157.624C192.827 154.462 189.543 141.69 191.61 130.501C193.678 119.311 184.159 111.74 180.177 110.292C176.195 108.845 168.848 109.645 165.423 107.999C159.593 105.198 153.915 101.917 148.324 103.352C142.035 104.966 134.618 103.946 124.204 102.187C114.838 100.606 99.5154 104.501 92.7257 107.999C85.936 111.497 78.8431 107.999 71.4406 110.292C66.6835 111.766 57.8203 123.031 60.9571 130.501C66.9829 144.849 60.5985 173.801 56.7758 181.021C55.9847 182.515 54.9869 183.246 53.8959 183.447M198.665 179.76C200.103 180.042 204.168 179.629 205.589 179.366M198.665 179.76C198.665 186.304 198.053 201.197 195.606 208.422C193.159 215.646 179.072 222.546 172.335 225.094V243.185H218.268C222.911 229.68 214.858 221.554 211.801 211.106C209.881 204.546 206.698 188.26 205.589 179.366M211.801 154.932C211.801 159.906 211.801 165.651 211.801 171.125C211.801 175.329 209.522 178.638 205.589 179.366M211.801 154.932C211.801 149.957 215.251 138.685 214.072 135.802M211.801 154.932C209.894 155.676 205.464 156.719 203.001 154.932M214.072 135.802C212.893 132.92 214.858 119.293 214.858 117.459M214.072 135.802C210.685 135.886 203.729 135.496 203.001 133.267M214.858 117.459C214.858 115.624 224.292 91.778 214.072 84.9647M214.858 117.459C211.447 118.587 203.683 120.167 199.921 117.459M214.072 84.9647C214.203 79.1997 211.556 66.8573 199.921 63.6079M214.072 84.9647C207.905 85.6151 194.03 89.9701 187.873 102.187M199.921 63.6079C198.603 59.3135 192.81 51.0778 180.177 52.4907M199.921 63.6079C197.801 70.2412 189.674 86.3512 174.13 97.7247M180.177 52.4907C177.437 46.4355 167.406 37.3523 159.593 43.4079M180.177 52.4907C176.131 63.1661 166.35 85.3575 159.593 88.7207M159.593 43.4079C155.697 37.3523 146.898 31.7905 138.399 37.3523M159.593 43.4079C159.937 48.4023 159.771 59.7182 156.359 65.0258M138.399 37.3523C133.93 33.4116 124.204 29.7063 115.944 40.1278M138.399 37.3523C143.912 41.7588 152.758 58.723 144.038 91.3271M115.944 40.1278C111.004 33.4114 94.5631 32.2536 89.1991 43.4079M115.944 40.1278C119.668 47.5358 126.534 67.8627 124.204 89.9054M89.1991 43.4079C83.6678 41.3843 72.3721 39.9642 71.4406 50.4725M89.1991 43.4079C93.1487 55.6687 102.537 82.1335 108.496 89.9054M71.4406 50.4725C66.5523 49.6315 56.7758 50.7753 56.7758 62.0786M71.4406 50.4725C70.966 59.2334 74.1851 79.9891 90.858 92.9246M56.7758 62.0786C49.6698 60.3966 36.1137 61.3217 38.7377 78.4786M56.7758 62.0786C56.0077 69.4301 57.4096 86.5196 69.1622 96.0661M38.7377 78.4786C33.9437 81.5063 26.021 91.3463 32.6819 106.485M38.7377 78.4786C39.9094 80.6289 43.417 85.3086 48.0743 86.8251M32.6819 106.485C30.8317 111.81 28.6954 125.976 34.9526 140.042M32.6819 106.485C37.4966 107.728 47.9317 110.94 51.1542 113.837M34.9526 140.042C42.7742 157.624 41.6942 174.225 44.8842 177.623C45.694 178.689 46.8169 179.944 48.0743 181.021M34.9526 140.042C40.6691 139.474 51.9124 137.83 51.1542 135.802M48.0743 181.021C46.0692 187.839 42.5228 198.778 38.7377 208.422C35.1071 217.672 28.8969 234.288 32.6819 238.803C36.467 243.318 44.3367 242.616 48.0743 242.616C51.0644 242.616 71.4939 242.616 81.3348 242.616V225.094C72.3043 223.241 54.1738 216.966 53.8959 206.685C53.6181 196.404 53.7801 186.909 53.8959 183.447M48.0743 181.021C49.913 182.596 52.0395 183.788 53.8959 183.447" stroke="#3B2607" stroke-width="5" stroke-linecap="round" stroke-linejoin="round"/>
</svg>
