<svg width="292" height="187" viewBox="0 0 292 187" fill="none" xmlns="http://www.w3.org/2000/svg">
<path d="M187.919 67.6636C179.767 67.6636 174.096 80.7783 177.353 92.9627C179.723 101.831 182.061 110.492 185.028 114.151C188.653 118.622 197.331 119.543 198.837 119.767C204.177 120.562 212.156 119.279 212.156 122.453C212.156 124.337 205.029 131.024 207.873 134.801C210.717 138.579 215.285 143.558 222.183 143.558C226.931 143.558 233.01 123.52 230.83 114.151C226.804 96.8527 208.093 97.1239 206.016 96.3451C203.939 95.5662 205.738 90.6508 203.61 83.3538C201.368 75.6684 198.123 67.6636 187.919 67.6636Z" fill="#1C974D" stroke="#383434" stroke-width="4" stroke-linecap="round" stroke-linejoin="round"/>
<path d="M132.496 65.3205C118.393 70.9474 124.011 87.2802 126.982 94.8331C129.954 102.386 145.08 118.997 147.675 122.24C150.269 125.483 138.971 141.499 136.606 148.595C134.24 155.691 136.606 160.578 141.35 171.787C142.983 175.647 156.398 177.79 159.935 178.355L160.061 178.376C168.989 179.804 187.305 179.804 191.521 179.804H205.128C205.128 179.804 210.794 157.312 196.493 157.312C177.978 157.312 168.17 152.412 168.17 145.102C168.17 137.792 181.139 128.545 178.678 117.511C175.433 102.959 175.777 48.0516 132.496 65.3205Z" fill="#1C974D" stroke="#383434" stroke-width="4" stroke-linecap="round" stroke-linejoin="round"/>
<path d="M207.359 47.615C203.172 48.8114 198.881 52.6302 196.144 54.3434C193.115 56.2388 189.659 58.1431 182.773 56.2388C171.878 53.2258 141.44 51.1111 129.631 51.7326C117.821 52.3542 96.0671 35.7277 77.7313 27.6475C59.3956 19.5673 27.2303 14.9057 12.7792 18.0135C-1.67185 21.1212 -0.209762 33.0808 9.20567 34.1738C20.3727 35.4701 33.4723 40.7119 46.8094 46.7602C61.0873 53.2352 102.749 86.6948 110.674 101.767C118.599 116.84 146.569 129.893 180.443 126.785C214.318 123.677 212.764 100.524 215.406 100.524C218.047 100.524 225.816 89.8026 227.215 84.0533C228.334 79.4538 238.039 65.2362 242.752 58.7024C263.848 58.4865 286.377 46.9958 288.282 45.6725C289.698 44.6892 289.959 41.596 289.852 37.9746C289.747 34.4417 290.253 30.2262 289.215 27.3367C287.209 21.7536 262.954 9.00087 249.902 2.9407C244.929 0.205667 239.957 4.0803 238.092 6.35949C218.451 6.11087 209.419 33.7596 207.359 47.615Z" fill="#1C974D"/>
<path d="M216.306 47.615C219.066 59.8573 232.88 58.8034 242.752 58.7024M242.752 58.7024C263.848 58.4865 286.377 46.9958 288.282 45.6725C289.698 44.6892 289.959 41.596 289.852 37.9746C289.747 34.4417 290.253 30.2262 289.215 27.3367C287.209 21.7536 262.954 9.00087 249.902 2.9407C244.929 0.205667 239.957 4.0803 238.092 6.35949C218.451 6.11087 209.419 33.7596 207.359 47.615C203.172 48.8114 198.881 52.6302 196.144 54.3434C193.115 56.2388 189.659 58.1431 182.773 56.2388C171.878 53.2258 141.44 51.1111 129.631 51.7326C117.821 52.3542 96.0671 35.7277 77.7313 27.6475C59.3956 19.5673 27.2303 14.9057 12.7792 18.0135C-1.67185 21.1212 -0.209762 33.0808 9.20566 34.1738C20.3727 35.4701 33.4723 40.7119 46.8094 46.7602C61.0873 53.2352 102.749 86.6948 110.674 101.767C118.599 116.84 146.569 129.893 180.443 126.785C214.318 123.677 212.764 100.524 215.406 100.524C218.047 100.524 225.817 89.8026 227.215 84.0532C228.334 79.4538 238.039 65.2362 242.752 58.7024Z" stroke="#383434" stroke-width="4" stroke-linecap="round" stroke-linejoin="round"/>
<path d="M194.919 71.6636C186.767 71.6636 181.096 84.7783 184.353 96.9627C186.723 105.831 189.061 114.492 192.028 118.151C195.653 122.622 204.331 123.543 205.837 123.767C211.177 124.562 219.156 123.279 219.156 126.453C219.156 128.337 212.029 135.024 214.873 138.801C217.717 142.579 222.285 147.558 229.183 147.558C233.931 147.558 240.01 127.52 237.83 118.151C233.804 100.853 215.093 101.124 213.016 100.345C210.939 99.5662 212.738 94.6508 210.61 87.3538C208.368 79.6684 205.123 71.6636 194.919 71.6636Z" fill="#1C974D" stroke="#383434" stroke-width="4" stroke-linecap="round" stroke-linejoin="round"/>
<path d="M122.496 70.3205C108.393 75.9474 114.011 92.2802 116.982 99.8331C119.954 107.386 135.08 123.997 137.675 127.24C140.269 130.483 128.971 146.499 126.606 153.595C124.24 160.691 126.606 165.578 131.35 176.787C132.983 180.647 146.398 182.79 149.935 183.355L150.061 183.376C158.989 184.804 177.305 184.804 181.521 184.804H195.128C195.128 184.804 200.794 162.312 186.493 162.312C167.978 162.312 158.17 157.412 158.17 150.102C158.17 142.792 171.139 133.545 168.678 122.511C165.433 107.959 165.777 53.0516 122.496 70.3205Z" fill="#1C974D" stroke="#383434" stroke-width="4" stroke-linecap="round" stroke-linejoin="round"/>
<path d="M226.465 39.9488C223.524 39.9488 220.584 35.0478 219.482 32.5972C213.601 19.1809 234.551 9.62462 238.411 9.99218C242.27 10.3597 247.6 18.8137 247.416 19.365C247.232 19.9164 245.395 21.938 245.211 30.392C245.027 38.846 230.141 39.9487 226.465 39.9488Z" fill="#033561"/>
<path d="M234.937 31.0573C237.496 31.0573 239.305 29.5699 240.42 28.1195C240.981 27.3886 241.394 26.6348 241.669 26.0055C241.807 25.6905 241.914 25.3965 241.989 25.1419C242.056 24.9177 242.124 24.6337 242.124 24.3739C242.124 24.1168 242.047 23.8995 241.999 23.7801C241.943 23.6395 241.871 23.502 241.797 23.3759C241.65 23.1225 241.453 22.8403 241.23 22.551C240.783 21.9689 240.176 21.2862 239.509 20.6339C238.844 19.9837 238.092 19.3369 237.349 18.8446C236.654 18.3833 235.788 17.9334 234.937 17.9334C233.562 17.9334 232.067 18.6751 230.945 19.7644C229.8 20.8756 228.902 22.481 228.902 24.3739C228.902 26.2249 229.696 27.8807 230.805 29.0668C231.899 30.2373 233.406 31.0573 234.937 31.0573Z" fill="#FFDD65" stroke="black" stroke-width="2.19076"/>
<ellipse cx="234.738" cy="24.4953" rx="0.701467" ry="2.95765" fill="#383434"/>
<path d="M289.852 37.9751C286.49 38.8486 280.48 40.2602 277.075 42.805C271.683 46.8355 259.401 51.1344 239.037 45.673C238.426 45.5663 236.274 45.0595 235.246 46.1852" stroke="#383434" stroke-width="3" stroke-linecap="round" stroke-linejoin="round"/>
<path d="M267.78 28.2754C271.482 28.7269 276.979 31.1873 271.637 33.0626" stroke="#383434" stroke-width="3" stroke-linecap="round" stroke-linejoin="round"/>
<path fill-rule="evenodd" clip-rule="evenodd" d="M190.199 65.4677C192.344 63.1013 194.781 61.2901 196.515 60.0015C196.987 59.6511 197.406 59.3393 197.754 59.0655C199.043 58.0496 200.44 56.8098 201.806 55.5979L201.807 55.5976L201.807 55.5975L201.807 55.5971L201.807 55.597C202.679 54.8235 203.538 54.0614 204.348 53.3761C205.418 52.4707 206.553 51.7193 207.408 51.1533L207.408 51.153L207.408 51.1529C208.548 50.3984 209.19 49.9736 208.516 49.953C206.635 49.8957 203.785 51.7226 201.658 53.3761C198.198 56.0665 190.928 60.7483 187.583 61.8045C184.237 62.8607 179.179 63.7406 174.793 61.8045C170.769 60.0279 152.446 56.582 143.715 56.8004L143.31 56.8105C133.26 57.0634 109.882 57.6516 104.152 50.0113C98.3439 42.2666 87.1546 37.6817 82.8548 36.9865C79.0695 36.3745 74.701 33.5426 70.9318 31.0991C68.6763 29.6369 66.6355 28.3139 65.0626 27.6889C61.4653 26.2595 45.0444 21.7346 42.0521 21.7346C41.2925 21.7346 40.1557 21.6437 38.8796 21.5416C35.1291 21.2417 30.1748 20.8455 30.0506 22.3776C29.9105 24.1072 34.3287 24.0783 38.5299 24.0508C39.0519 24.0474 39.5705 24.044 40.0766 24.044C42.5545 24.044 43.3216 25.3447 44.1518 26.7523C45.1307 28.4123 46.1973 30.2209 50.2602 30.2209C51.2496 30.2209 52.2714 30.184 53.2892 30.1472H53.2893H53.2893H53.2893C57.9066 29.9805 62.4419 29.8167 63.4939 33.1142C64.63 36.6752 68.2794 44.7939 72.9986 42.2668C77.9237 39.6294 88.3122 40.5069 89.3683 48.0755C90.4244 55.644 94.6638 64.9715 100.203 67.0784C105.138 68.9556 119.01 65.7894 125.067 63.7406C130.791 61.8045 140.764 60.3964 151.677 61.8045C158.858 62.731 162.88 67.2207 166.747 71.5372C168.756 73.7806 170.724 75.9772 173.072 77.6025C178.42 81.3049 183.204 74.7707 187.103 69.4456L187.103 69.4454C188.209 67.9353 189.243 66.5224 190.199 65.4677ZM86.5886 48.2528C86.5886 50.5891 85.3008 52.483 83.7122 52.483C82.1237 52.483 80.8359 50.5891 80.8359 48.2528C80.8359 45.9166 82.1237 44.0227 83.7122 44.0227C85.3008 44.0227 86.5886 45.9166 86.5886 48.2528ZM55.5964 34.6634C56.5337 34.5308 57.2272 33.9542 57.1453 33.3753C57.0635 32.7964 56.2373 32.4345 55.3 32.567C54.3627 32.6995 53.6692 33.2762 53.7511 33.8551C53.8329 34.434 54.6591 34.7959 55.5964 34.6634ZM59.3027 32.019C59.8621 32.1889 60.0925 33.061 59.8174 33.9667C59.5423 34.8725 58.8657 35.469 58.3063 35.2991C57.7469 35.1292 57.5165 34.2571 57.7916 33.3514C58.0668 32.4456 58.7433 31.8491 59.3027 32.019ZM39.0783 29.0947C40.2634 27.8151 40.7076 26.2993 40.0704 25.7092C39.4332 25.119 37.9559 25.678 36.7708 26.9576C35.5856 28.2373 35.1415 29.7531 35.7787 30.3432C36.4159 30.9333 37.8932 30.3744 39.0783 29.0947Z" fill="#033561"/>
</svg>
