<svg width="290" height="211" viewBox="0 0 290 211" fill="none" xmlns="http://www.w3.org/2000/svg">
<path d="M51.4708 126.193C57.9809 115.892 81.4301 122.562 92.341 127.185L134.473 104.322C162.965 40.4789 222.904 28.3849 249.312 30.3183C251.703 27.6674 258.01 22.5937 264.12 23.506C271.758 24.6464 286.42 59.094 285.019 61.9855C283.898 64.2986 275.32 68.8067 271.172 70.7717C254.253 102.863 207.157 123.762 185.723 130.2C180.216 140.43 164.272 148.744 161.078 148.391C158.523 148.108 154.651 136.586 153.035 130.86C152.954 130.57 152.026 129.907 148.954 129.567C145.883 129.227 119.711 145.877 107.009 154.245C104.34 171.966 90.6598 190.235 85.3862 190.004C81.1673 189.82 73.3303 165.942 69.9392 154.027C64.2605 149.159 55.2608 133.443 51.4708 126.193Z" fill="#29AEE3"/>
<path d="M51.4708 126.193L49.7801 125.125C49.3991 125.728 49.3679 126.488 49.6984 127.12L51.4708 126.193ZM69.9392 154.027L71.8628 153.479C71.7553 153.102 71.539 152.764 71.2409 152.508L69.9392 154.027ZM85.3862 190.004L85.2988 192.003L85.2988 192.003L85.3862 190.004ZM153.035 130.86L151.108 131.396L151.11 131.403L153.035 130.86ZM285.019 61.9855L283.219 61.1133L283.219 61.1133L285.019 61.9855ZM264.12 23.506L264.416 21.5279L264.12 23.506ZM134.473 104.322L135.427 106.08C135.813 105.87 136.12 105.539 136.299 105.137L134.473 104.322ZM76.5102 154.754L74.6714 155.541L76.5102 154.754ZM93.1212 125.343C87.5545 122.985 78.7762 120.093 70.4922 119.107C66.3534 118.614 62.2176 118.58 58.623 119.402C55.0124 120.228 51.7788 121.962 49.7801 125.125L53.1614 127.262C54.4178 125.274 56.5566 123.978 59.5147 123.302C62.4887 122.622 66.1178 122.614 70.019 123.078C77.8149 124.007 86.2166 126.762 91.5607 129.027L93.1212 125.343ZM49.6984 127.12C51.6135 130.783 54.8376 136.572 58.3051 142.07C61.7225 147.488 65.537 152.887 68.6375 155.545L71.2409 152.508C68.6627 150.298 65.138 145.405 61.6884 139.936C58.2888 134.546 55.1181 128.853 53.2432 125.267L49.6984 127.12ZM68.0156 154.574C69.7212 160.567 72.5474 169.58 75.4883 177.14C76.9549 180.91 78.4764 184.388 79.9272 186.963C80.6484 188.242 81.3973 189.381 82.1639 190.233C82.847 190.991 83.9108 191.942 85.2988 192.003L85.4735 188.006C85.8069 188.021 85.7029 188.185 85.1366 187.556C84.6538 187.02 84.0719 186.17 83.412 184.999C82.1009 182.672 80.6602 179.402 79.2162 175.69C76.3362 168.286 73.5484 159.402 71.8628 153.479L68.0156 154.574ZM85.2988 192.003C86.5106 192.056 87.6969 191.586 88.7224 190.992C89.7846 190.376 90.8872 189.503 91.9898 188.458C94.199 186.365 96.5831 183.418 98.8487 179.951C103.373 173.026 107.599 163.759 108.987 154.542L105.031 153.947C103.751 162.451 99.8014 171.18 95.5002 177.763C93.3528 181.049 91.1612 183.733 89.2387 185.554C88.2755 186.467 87.4232 187.121 86.7174 187.53C85.9749 187.96 85.5801 188.011 85.4735 188.006L85.2988 192.003ZM108.109 155.915C114.448 151.739 124.144 145.499 132.631 140.35C136.878 137.774 140.797 135.485 143.832 133.867C145.353 133.056 146.618 132.433 147.573 132.027C148.052 131.824 148.416 131.691 148.673 131.617C148.995 131.524 148.956 131.579 148.734 131.555L149.175 127.579C148.569 127.512 147.966 127.657 147.56 127.775C147.09 127.911 146.565 128.11 146.01 128.345C144.896 128.818 143.513 129.505 141.95 130.338C138.817 132.008 134.824 134.341 130.556 136.93C122.013 142.114 112.272 148.383 105.909 152.575L108.109 155.915ZM148.734 131.555C150.168 131.713 150.981 131.936 151.389 132.095C151.594 132.175 151.644 132.219 151.606 132.192C151.587 132.177 151.517 132.124 151.432 132.022C151.356 131.932 151.199 131.723 151.108 131.396L154.962 130.324C154.76 129.597 154.241 129.165 153.984 128.975C153.654 128.731 153.265 128.534 152.844 128.369C151.999 128.039 150.812 127.76 149.175 127.579L148.734 131.555ZM151.11 131.403C151.931 134.31 153.327 138.7 154.854 142.425C155.614 144.278 156.437 146.041 157.27 147.389C157.684 148.058 158.144 148.699 158.652 149.206C159.118 149.672 159.863 150.268 160.858 150.378L161.298 146.403C161.655 146.442 161.72 146.617 161.479 146.376C161.279 146.177 161.006 145.826 160.672 145.286C160.01 144.214 159.285 142.686 158.555 140.907C157.104 137.369 155.755 133.135 154.96 130.316L151.11 131.403ZM160.858 150.378C161.662 150.467 162.573 150.281 163.374 150.054C164.24 149.809 165.235 149.437 166.305 148.968C168.448 148.029 171.009 146.648 173.627 144.939C178.809 141.555 184.498 136.696 187.484 131.148L183.962 129.252C181.442 133.934 176.405 138.347 171.44 141.59C168.984 143.193 166.616 144.464 164.699 145.304C163.739 145.725 162.921 146.025 162.282 146.206C161.579 146.406 161.293 146.402 161.298 146.403L160.858 150.378ZM186.298 132.115C197.161 128.852 214.451 121.953 231.177 111.816C247.868 101.701 264.233 88.2213 272.941 71.7044L269.403 69.839C261.192 85.4133 245.55 98.4286 229.104 108.395C212.694 118.341 195.718 125.109 185.148 128.284L186.298 132.115ZM272.028 72.5792C274.141 71.5785 277.38 69.9314 280.251 68.2295C281.683 67.3804 283.062 66.4949 284.174 65.6513C284.73 65.2297 285.249 64.7966 285.683 64.3636C286.098 63.9508 286.536 63.4417 286.819 62.8576L283.219 61.1133C283.222 61.1075 283.146 61.2453 282.861 61.5294C282.596 61.7934 282.228 62.1073 281.757 62.4643C280.816 63.178 279.582 63.9761 278.211 64.7888C275.475 66.4105 272.351 68 270.316 68.9642L272.028 72.5792ZM286.819 62.8576C287.159 62.1561 287.127 61.3754 287.093 60.9329C287.05 60.3832 286.937 59.7575 286.785 59.0989C286.479 57.7734 285.964 56.1062 285.303 54.2446C283.978 50.5103 282.007 45.8281 279.757 41.2125C277.51 36.6049 274.951 31.9962 272.438 28.4389C271.184 26.6637 269.902 25.0933 268.635 23.9079C267.419 22.7696 265.983 21.762 264.416 21.5279L263.825 25.484C264.166 25.535 264.86 25.8533 265.902 26.8285C266.893 27.7565 267.999 29.087 269.171 30.7469C271.512 34.0596 273.963 38.4574 276.161 42.9656C278.356 47.4659 280.265 52.009 281.534 55.5826C282.17 57.3749 282.63 58.8822 282.888 59.9984C283.017 60.5607 283.084 60.9726 283.105 61.2458C283.135 61.6261 283.054 61.4534 283.219 61.1133L286.819 62.8576ZM264.416 21.5279C260.738 20.9788 257.168 22.2414 254.34 23.8331C251.491 25.437 249.15 27.5117 247.827 28.9791L250.798 31.6575C251.865 30.474 253.873 28.6863 256.302 27.3188C258.754 25.939 261.392 25.1208 263.825 25.484L264.416 21.5279ZM249.458 28.3236C222.489 26.3492 161.583 38.6669 132.647 103.507L136.299 105.137C164.346 42.2909 223.319 30.4207 249.166 32.313L249.458 28.3236ZM133.519 102.564L91.3871 125.427L93.2949 128.943L135.427 106.08L133.519 102.564ZM153.686 132.751C159.123 130.879 173.089 128.146 185.098 132.1L186.348 128.3C173.185 123.967 158.251 126.948 152.384 128.969L153.686 132.751ZM106.494 152.312C101.966 153.518 95.0513 154.984 89.0273 155.476C86.0011 155.723 83.3219 155.713 81.32 155.357C79.1699 154.975 78.5034 154.328 78.3491 153.968L74.6714 155.541C75.6868 157.915 78.2686 158.878 80.6202 159.296C83.1199 159.74 86.1958 159.72 89.3529 159.462C95.6955 158.944 102.86 157.42 107.524 156.177L106.494 152.312ZM78.3491 153.968C77.8818 152.875 77.8593 151.113 78.5149 148.722C79.1538 146.393 80.3592 143.751 81.9398 141.119C85.1367 135.796 89.5976 130.949 93.2949 128.943L91.3871 125.427C86.8077 127.912 81.891 133.431 78.5106 139.06C76.8025 141.904 75.4194 144.886 74.6574 147.665C73.9121 150.382 73.6765 153.214 74.6714 155.541L78.3491 153.968ZM247.679 31.4717C251.45 36.8146 257.061 45.2363 261.63 53.1197C263.916 57.0651 265.918 60.8348 267.297 63.9952C267.987 65.5763 268.504 66.9666 268.825 68.1255C269.157 69.3225 269.233 70.1098 269.184 70.5516L273.16 70.9918C273.292 69.7936 273.058 68.4228 272.68 67.0566C272.29 65.6523 271.696 64.0745 270.963 62.3956C269.497 59.0358 267.411 55.118 265.091 51.114C260.445 43.0983 254.764 34.5732 250.946 29.1649L247.679 31.4717Z" fill="#383434"/>
<path d="M129.408 66.5128C128.94 70.7457 140.477 82.3451 146.304 87.6157C161.493 61.2518 193.752 42.3936 207.983 36.26C195.182 30.9475 174.796 36.9678 167.155 40.0171C159.514 43.0663 129.994 61.2217 129.408 66.5128Z" fill="#29AEE3" stroke="#383434" stroke-width="4" stroke-linejoin="round"/>
<path d="M218.01 121.603C213.656 123.556 205.37 117.039 197.191 111.751C194.594 110.037 196.499 107.51 197.777 106.461C203.247 101.029 217.654 99.1668 224.174 98.9148C226.659 98.4595 231.57 98.5163 231.337 102.386C231.045 107.222 222.365 119.651 218.01 121.603Z" fill="#29AEE3"/>
<path d="M197.191 111.751L196.089 113.421L196.097 113.426L196.105 113.431L197.191 111.751ZM218.01 121.603L217.192 119.778L217.192 119.778L218.01 121.603ZM231.337 102.386L233.333 102.506L233.333 102.506L231.337 102.386ZM224.174 98.9148L224.251 100.913L224.394 100.908L224.535 100.882L224.174 98.9148ZM197.777 106.461L199.046 108.006L199.119 107.946L199.186 107.88L197.777 106.461ZM196.105 113.431C200.066 115.992 204.35 119.052 208.054 121.136C209.928 122.19 211.792 123.077 213.538 123.559C215.266 124.036 217.135 124.188 218.829 123.428L217.192 119.778C216.709 119.995 215.909 120.064 214.603 119.703C213.315 119.348 211.779 118.641 210.015 117.649C206.443 115.64 202.494 112.798 198.277 110.072L196.105 113.431ZM218.829 123.428C220.297 122.77 221.882 121.378 223.343 119.83C224.855 118.228 226.42 116.26 227.839 114.218C229.259 112.176 230.562 110.021 231.538 108.037C232.482 106.119 233.235 104.134 233.333 102.506L229.34 102.265C229.293 103.055 228.851 104.438 227.949 106.271C227.08 108.039 225.886 110.02 224.555 111.934C223.224 113.849 221.783 115.655 220.435 117.084C219.035 118.567 217.901 119.461 217.192 119.778L218.829 123.428ZM233.333 102.506C233.419 101.078 233.024 99.822 232.182 98.8428C231.38 97.9106 230.317 97.3954 229.336 97.1087C227.411 96.5464 225.216 96.6906 223.814 96.9475L224.535 100.882C225.617 100.684 227.12 100.629 228.214 100.948C228.742 101.102 229.018 101.298 229.149 101.451C229.24 101.556 229.371 101.758 229.34 102.265L233.333 102.506ZM224.097 96.9163C220.734 97.0463 215.375 97.5877 210.132 98.7965C204.997 99.9805 199.533 101.898 196.367 105.042L199.186 107.88C201.491 105.591 205.965 103.862 211.031 102.694C215.99 101.551 221.095 101.035 224.251 100.913L224.097 96.9163ZM196.507 104.915C195.717 105.564 194.6 106.758 194.125 108.249C193.874 109.038 193.777 109.996 194.112 110.988C194.449 111.989 195.15 112.801 196.089 113.421L198.293 110.082C198.109 109.961 198.01 109.862 197.961 109.803C197.914 109.746 197.904 109.715 197.902 109.71C197.9 109.704 197.896 109.691 197.897 109.659C197.898 109.623 197.906 109.559 197.936 109.464C198.001 109.262 198.14 109 198.364 108.712C198.582 108.429 198.833 108.181 199.046 108.006L196.507 104.915Z" fill="#383434"/>
<circle cx="229.637" cy="54.2253" r="7.27649" transform="rotate(6.31755 229.637 54.2253)" stroke="#383434" stroke-width="4"/>
<path opacity="0.1" d="M179.453 96.5784C184.362 104.578 189.552 110.319 189.552 110.319C183.837 113.826 175.225 110.185 170.316 102.186C165.407 94.1863 166.06 84.8586 171.775 81.3514C171.775 81.3514 174.544 88.5791 179.453 96.5784Z" fill="#383434"/>
<path opacity="0.1" d="M166.189 104.368C170.186 110.879 174.411 115.553 174.411 115.553C169.759 118.408 162.748 115.444 158.751 108.932C154.755 102.42 155.287 94.8272 159.939 91.9722C159.939 91.9722 162.193 97.8559 166.189 104.368Z" fill="#383434"/>
<path opacity="0.1" d="M152.141 111.377C155.067 116.146 158.161 119.568 158.161 119.568C154.755 121.658 149.621 119.488 146.695 114.72C143.769 109.952 144.158 104.392 147.565 102.301C147.565 102.301 149.215 106.609 152.141 111.377Z" fill="#383434"/>
<path opacity="0.1" d="M225.177 78.884C233.658 83.7759 241.275 86.4578 241.275 86.4578C237.78 92.5172 228.071 93.4637 219.589 88.5719C211.108 83.68 207.065 74.8022 210.56 68.7428C210.56 68.7428 216.695 73.9922 225.177 78.884Z" fill="#383434"/>
</svg>
